<svg width="34" height="34" viewBox="0 0 34 34" fill="none" xmlns="http://www.w3.org/2000/svg">
<rect x="0.214279" y="0.696045" width="33" height="33" rx="16.5" fill="#A694F5"/>
<path fill-rule="evenodd" clip-rule="evenodd" d="M21.242 9.34877C21.779 8.8118 22.6496 8.8118 23.1866 9.34877L27.3116 13.4738C27.8485 14.0107 27.8485 14.8813 27.3116 15.4183C26.7746 15.9553 25.904 15.9553 25.367 15.4183L21.242 11.2933C20.705 10.7563 20.705 9.88574 21.242 9.34877Z" fill="#3C357C"/>
<path fill-rule="evenodd" clip-rule="evenodd" d="M27.3116 9.34877C27.8485 9.88574 27.8485 10.7563 27.3116 11.2933L23.1866 15.4183C22.6496 15.9553 21.779 15.9553 21.242 15.4183C20.705 14.8813 20.705 14.0107 21.242 13.4738L25.367 9.34877C25.904 8.8118 26.7746 8.8118 27.3116 9.34877Z" fill="#3C357C"/>
<path fill-rule="evenodd" clip-rule="evenodd" d="M6.11701 9.34877C6.65398 8.8118 7.52458 8.8118 8.06155 9.34877L12.1866 13.4738C12.7235 14.0107 12.7235 14.8813 12.1866 15.4183C11.6496 15.9553 10.779 15.9553 10.242 15.4183L6.11701 11.2933C5.58004 10.7563 5.58004 9.88574 6.11701 9.34877Z" fill="#3C357C"/>
<path fill-rule="evenodd" clip-rule="evenodd" d="M12.1866 9.34877C12.7235 9.88574 12.7235 10.7563 12.1866 11.2933L8.06155 15.4183C7.52458 15.9553 6.65398 15.9553 6.11701 15.4183C5.58004 14.8813 5.58004 14.0107 6.11701 13.4738L10.242 9.34877C10.779 8.8118 11.6496 8.8118 12.1866 9.34877Z" fill="#3C357C"/>
<path fill-rule="evenodd" clip-rule="evenodd" d="M11.692 20.2759C13.1328 19.1703 14.8981 18.571 16.7142 18.571C18.5304 18.571 20.2957 19.1703 21.7365 20.2759C23.1773 21.3815 24.2131 22.9316 24.6831 24.6858C24.8797 25.4193 24.4444 26.1733 23.7109 26.3698C22.9773 26.5664 22.2234 26.1311 22.0268 25.3975C21.7135 24.2281 21.023 23.1947 20.0624 22.4576C19.1019 21.7206 17.925 21.321 16.7142 21.321C15.5035 21.321 14.3266 21.7206 13.3661 22.4576C12.4055 23.1947 11.715 24.2281 11.4017 25.3975C11.2051 26.1311 10.4511 26.5664 9.71763 26.3698C8.98411 26.1733 8.54881 25.4193 8.74536 24.6858C9.2154 22.9316 10.2512 21.3815 11.692 20.2759Z" fill="#3C357C"/>
</svg>
