<svg width="34" height="34" viewBox="0 0 34 34" fill="none" xmlns="http://www.w3.org/2000/svg">
<rect x="0.64286" y="0.696045" width="33" height="33" rx="16.5" fill="#ED7E1C"/>
<path fill-rule="evenodd" clip-rule="evenodd" d="M12.1205 20.2759C13.5614 19.1703 15.3267 18.571 17.1428 18.571C18.9589 18.571 20.7243 19.1703 22.1651 20.2759C23.6059 21.3815 24.6417 22.9316 25.1117 24.6858C25.3083 25.4193 24.873 26.1733 24.1394 26.3698C23.4059 26.5664 22.652 26.1311 22.4554 25.3975C22.1421 24.2281 21.4516 23.1947 20.491 22.4576C19.5305 21.7206 18.3536 21.321 17.1428 21.321C15.9321 21.321 14.7552 21.7206 13.7946 22.4576C12.8341 23.1947 12.1436 24.2281 11.8302 25.3975C11.6337 26.1311 10.8797 26.5664 10.1462 26.3698C9.4127 26.1733 8.9774 25.4193 9.17394 24.6858C9.64398 22.9316 10.6797 21.3815 12.1205 20.2759Z" fill="#663600"/>
<path fill-rule="evenodd" clip-rule="evenodd" d="M8.89286 10.321C9.65225 10.321 10.2679 10.9367 10.2679 11.696V15.821C10.2679 16.5804 9.65225 17.196 8.89286 17.196C8.13347 17.196 7.51786 16.5804 7.51786 15.821V11.696C7.51786 10.9367 8.13347 10.321 8.89286 10.321Z" fill="#663600"/>
<path fill-rule="evenodd" clip-rule="evenodd" d="M25.3929 10.321C26.1523 10.321 26.7679 10.9367 26.7679 11.696V15.821C26.7679 16.5804 26.1523 17.196 25.3929 17.196C24.6335 17.196 24.0179 16.5804 24.0179 15.821V11.696C24.0179 10.9367 24.6335 10.321 25.3929 10.321Z" fill="#663600"/>
</svg>
