<svg width="320" height="318" viewBox="0 0 320 318" fill="none" xmlns="http://www.w3.org/2000/svg">
<rect x="9.5" width="300" height="300" rx="150" fill="white"/>
<path fill-rule="evenodd" clip-rule="evenodd" d="M294.902 198.45C282.879 212.78 251.515 206.265 224.857 183.898C198.199 161.516 198.774 142.207 210.812 127.862C222.836 113.532 241.749 109.602 268.421 131.969C295.064 154.351 306.925 184.119 294.902 198.45Z" fill="#7D944D"/>
<path d="M285.785 169.819C281.285 169.819 276.963 167.913 273.909 164.5L254.923 143.271C252.297 140.331 250.851 136.549 250.851 132.604V122.336C250.851 121.228 251.751 120.342 252.842 120.342C253.949 120.342 254.834 121.243 254.834 122.336V132.604C254.834 135.559 255.911 138.395 257.888 140.597L276.874 161.826C279.53 164.781 283.454 166.243 287.378 165.712L294.754 164.722C295.846 164.589 296.849 165.342 296.997 166.435C297.144 167.529 296.377 168.533 295.286 168.681L287.909 169.671C287.216 169.759 286.493 169.819 285.785 169.819Z" fill="white"/>
<path fill-rule="evenodd" clip-rule="evenodd" d="M153.02 255.704C241.992 255.704 261.451 199.786 249.782 141.062C238.112 82.337 197.794 28 153.02 28C108.246 28 67.3959 78.6288 56.2725 141.062C45.1491 203.509 64.0471 255.704 153.02 255.704Z" fill="#9BB168"/>
<path fill-rule="evenodd" clip-rule="evenodd" d="M151.264 60.0142H173.614C196.909 60.0142 215.792 78.9243 215.792 102.252C215.792 125.579 196.909 144.489 173.614 144.489H151.264C127.97 144.489 109.087 125.579 109.087 102.252C109.087 78.9095 127.97 60.0142 151.264 60.0142Z" fill="#7D944D"/>
<path fill-rule="evenodd" clip-rule="evenodd" d="M156.501 56.3356H178.851C202.146 56.3356 221.029 75.2457 221.029 98.5731C221.029 121.9 202.146 140.811 178.851 140.811H156.501C133.207 140.811 114.324 121.9 114.324 98.5731C114.324 75.2457 133.207 56.3356 156.501 56.3356Z" fill="white"/>
<path d="M137.706 256.133C136.6 256.133 135.715 255.231 135.715 254.138V231.934C135.715 223.129 142.87 215.949 151.677 215.949H182.525C189.119 215.949 194.489 210.571 194.489 203.967V197.91C194.489 196.802 195.389 195.916 196.481 195.916C197.587 195.916 198.472 196.817 198.472 197.91V203.967C198.472 212.772 191.317 219.952 182.51 219.952H151.677C145.083 219.952 139.713 225.33 139.713 231.934V254.123C139.713 255.231 138.813 256.133 137.706 256.133Z" fill="#7D944D"/>
<path d="M196.481 155.658C195.374 155.658 194.489 154.757 194.489 153.663V152.275C194.489 146.764 198.959 142.288 204.462 142.288H248.778C249.885 142.288 250.77 143.189 250.77 144.282C250.77 145.39 249.87 146.277 248.778 146.277H204.462C201.157 146.277 198.472 148.965 198.472 152.275V153.663C198.472 154.771 197.587 155.658 196.481 155.658Z" fill="#7D944D"/>
<path fill-rule="evenodd" clip-rule="evenodd" d="M176.939 154.978L203.256 154.519C214.98 154.313 224.65 163.655 224.865 175.389C224.865 175.389 224.865 175.389 224.862 175.403C225.062 187.135 215.732 196.821 204.009 197.027L177.692 197.486C165.968 197.692 156.298 188.349 156.083 176.616C156.083 176.616 156.083 176.616 156.086 176.601C155.888 164.855 165.218 155.169 176.939 154.978Z" fill="#926247"/>
<path fill-rule="evenodd" clip-rule="evenodd" d="M183.211 154.495L209.016 154.05C220.876 153.839 230.673 163.309 230.879 175.176L230.877 175.19C231.08 187.072 221.626 196.871 209.754 197.066L183.949 197.511C172.09 197.723 162.304 188.27 162.083 176.4L162.086 176.385C161.882 164.504 171.337 154.704 183.211 154.495Z" fill="white"/>
<path d="M183.836 186.581C178.472 186.577 174.047 182.255 173.948 176.854C173.844 171.392 178.205 166.869 183.662 166.77L183.827 166.769C183.888 166.764 183.946 166.775 184.007 166.771C189.371 166.774 193.796 171.096 193.895 176.497C193.999 181.959 189.638 186.482 184.18 186.581L184.016 186.582C183.957 186.572 183.897 186.576 183.836 186.581ZM183.741 170.757C180.48 170.811 177.876 173.514 177.934 176.764C177.99 180.028 180.681 182.618 183.942 182.565L184.107 182.565C187.354 182.509 189.957 179.805 189.899 176.555C189.844 173.291 187.128 170.667 183.891 170.754L183.741 170.757Z" fill="#926247"/>
<path d="M200.304 173.346C199.242 173.338 198.354 172.506 198.318 171.436C198.272 170.333 199.124 169.404 200.226 169.359L215.367 168.708C216.469 168.663 217.398 169.517 217.443 170.62C217.489 171.722 216.637 172.651 215.535 172.696L200.394 173.347C200.365 173.342 200.336 173.336 200.304 173.346Z" fill="#926247"/>
<path d="M200.88 181.475C199.818 181.467 198.93 180.635 198.894 179.564C198.848 178.462 199.7 177.533 200.802 177.488L209.543 177.115C210.644 177.069 211.573 177.923 211.619 179.026C211.665 180.128 210.812 181.057 209.711 181.102L200.97 181.476C200.938 181.485 200.909 181.48 200.88 181.475Z" fill="#926247"/>
<path fill-rule="evenodd" clip-rule="evenodd" d="M166.096 82.0364C168.693 82.0364 170.802 84.149 170.802 86.7492V88.3447C170.802 90.9448 168.693 93.0575 166.096 93.0575C163.5 93.0575 161.39 90.9448 161.39 88.3447V86.7492C161.39 84.149 163.5 82.0364 166.096 82.0364Z" fill="#926247"/>
<path fill-rule="evenodd" clip-rule="evenodd" d="M199.467 82.0365C202.063 82.0365 204.173 84.1491 204.173 86.7492V88.3448C204.173 90.9449 202.063 93.0575 199.467 93.0575C196.87 93.0575 194.76 90.9449 194.76 88.3448V86.7492C194.76 84.1491 196.87 82.0365 199.467 82.0365Z" fill="#926247"/>
<path d="M178.946 113.992C173.576 113.992 169.209 109.619 169.209 104.241C169.209 103.133 170.109 102.247 171.201 102.247C172.307 102.247 173.192 103.148 173.192 104.241C173.192 107.418 175.774 110.003 178.946 110.003L187.871 109.929C191.058 109.9 193.625 107.373 193.713 104.182C193.743 103.074 194.672 102.217 195.764 102.247C196.87 102.276 197.726 103.192 197.696 104.3C197.549 109.648 193.241 113.874 187.901 113.933L178.946 113.992Z" fill="#4F3422"/>
<path fill-rule="evenodd" clip-rule="evenodd" d="M44.0358 217.736C60.2194 227.088 87.4083 210.246 104.787 180.108C122.165 149.97 115.025 132.035 98.8415 122.669C82.658 113.332 63.5682 116.109 46.1897 146.247C28.8112 176.385 27.8523 208.385 44.0358 217.736Z" fill="#7D944D"/>
<path d="M82.5548 208.429C81.7581 208.429 80.991 207.941 80.6959 207.144L74.9572 192.222C73.7917 189.194 74.0573 185.855 75.6948 183.048L87.6296 162.468C89.5327 159.204 93.0586 157.165 96.8352 157.165H112.576C113.683 157.165 114.568 158.066 114.568 159.159C114.568 160.252 113.668 161.154 112.576 161.154H96.8205C94.4601 161.154 92.2619 162.424 91.067 164.463L79.1322 185.042C78.1142 186.8 77.952 188.884 78.6748 190.775L84.4136 205.725C84.8119 206.759 84.2956 207.912 83.2629 208.311C83.0268 208.385 82.7908 208.429 82.5548 208.429Z" fill="white"/>
<path d="M233.246 317.931C250.324 317.931 264.168 304.067 264.168 286.965C264.168 269.864 250.324 256 233.246 256C216.169 256 202.325 269.864 202.325 286.965C202.325 304.067 216.169 317.931 233.246 317.931Z" fill="#ED7E1C"/>
<path fill-rule="evenodd" clip-rule="evenodd" d="M219.139 270H247.255C248.81 270 250.069 271.257 250.069 272.809V276.08C250.069 277.632 248.81 278.889 247.255 278.889H219.139C217.584 278.889 216.325 277.632 216.325 276.08V272.809C216.325 271.257 217.584 270 219.139 270Z" fill="#4F3422"/>
<path fill-rule="evenodd" clip-rule="evenodd" d="M220.373 278.889H246.369V301.811C246.369 303.363 245.109 304.62 243.554 304.62H223.187C221.632 304.62 220.373 303.363 220.373 301.811V278.889Z" fill="white"/>
<path fill-rule="evenodd" clip-rule="evenodd" d="M225.23 283.096H242.565C243.336 283.096 243.966 283.725 243.966 284.494V293.383C243.966 294.153 243.336 294.782 242.565 294.782H225.23C224.459 294.782 223.829 294.153 223.829 293.383V284.494C223.829 283.725 224.459 283.096 225.23 283.096Z" fill="white"/>
<path d="M240.65 289.959H229.201C228.43 289.959 227.8 289.33 227.8 288.56C227.8 287.791 228.43 287.162 229.201 287.162H240.65C241.421 287.162 242.051 287.791 242.051 288.56C242.064 289.33 241.434 289.959 240.65 289.959Z" fill="#4F3422"/>
<path d="M66.0931 74.6867C78.1685 62.5941 78.1685 42.9882 66.0931 30.8956C54.0177 18.803 34.4396 18.803 22.3642 30.8956C10.2888 42.9882 10.2888 62.5941 22.3642 74.6867C34.4396 86.7793 54.0177 86.7793 66.0931 74.6867Z" fill="#ED7E1C"/>
<path d="M47.489 58.5701H42.0453V68.7047H47.489V58.5701Z" fill="#4F3422"/>
<path fill-rule="evenodd" clip-rule="evenodd" d="M28.4876 34.962H61.0612C62.1677 34.962 63.0528 35.8632 63.0528 36.9564V57.8905C63.0528 58.9985 62.1529 59.8849 61.0612 59.8849H28.4876C27.3812 59.8849 26.496 58.9838 26.496 57.8905V36.9564C26.496 35.8632 27.3812 34.962 28.4876 34.962Z" fill="white"/>
<path d="M54.703 70.9059H35.4657C34.3592 70.9059 33.4741 70.0047 33.4741 68.9115C33.4741 67.8183 34.374 66.9171 35.4657 66.9171H54.703C55.8094 66.9171 56.6946 67.8183 56.6946 68.9115C56.6946 70.0047 55.8094 70.9059 54.703 70.9059Z" fill="#4F3422"/>
<path d="M34.6837 54.3596C34.1673 54.3596 33.6658 54.1676 33.2674 53.7687C32.4856 52.9857 32.4856 51.7299 33.2674 50.9469L40.6732 43.5306C41.4551 42.7476 42.7091 42.7476 43.491 43.5306L47.1201 47.1649L53.2866 40.9896C54.0685 40.2066 55.3225 40.2066 56.1044 40.9896C56.8863 41.7726 56.8863 43.0283 56.1044 43.8113L48.5216 51.4049C47.7397 52.1879 46.4857 52.1879 45.7038 51.4049L42.0895 47.7854L36.0999 53.7834C35.7164 54.1676 35.2 54.3596 34.6837 54.3596Z" fill="#4F3422"/>
<path d="M310.093 102.687C322.169 90.5941 322.169 70.9882 310.093 58.8956C298.018 46.803 278.44 46.803 266.364 58.8956C254.289 70.9882 254.289 90.5941 266.364 102.687C278.44 114.779 298.018 114.779 310.093 102.687Z" fill="#ED7E1C"/>
<path fill-rule="evenodd" clip-rule="evenodd" d="M279.842 90.9745C275.741 86.9413 274.148 82.1842 275.033 76.7328C276.361 68.5483 284.976 64.9879 291.482 67.0414C297.988 69.0949 300.717 72.8326 301.499 78.4909C302.016 82.2729 300.408 86.4242 296.646 90.9745L295.274 93.2644V97.6226C295.274 101.478 292.161 104.596 288.31 104.596C284.46 104.596 281.347 101.478 281.347 97.6226V93.7667L279.842 90.9745Z" fill="white"/>
<path fill-rule="evenodd" clip-rule="evenodd" d="M286.348 82.4501H283.354C282.985 82.4501 282.69 82.1546 282.69 81.7853C282.69 81.6523 282.734 81.5194 282.808 81.416L288.074 73.7042C288.281 73.394 288.694 73.3201 289.004 73.5269C289.181 73.6451 289.299 73.8519 289.299 74.0735V77.6635C289.299 78.0328 289.594 78.3283 289.963 78.3283H292.471C292.839 78.3283 293.134 78.6238 293.134 78.9931C293.134 79.1261 293.105 79.2443 293.031 79.3477L288.251 86.9265C288.06 87.2367 287.647 87.3254 287.337 87.1333C287.145 87.0151 287.027 86.7935 287.027 86.5719V83.1297C287.012 82.7603 286.717 82.4501 286.348 82.4501Z" fill="#4F3422"/>
<path fill-rule="evenodd" clip-rule="evenodd" d="M304.627 76.6884L307.607 76.1713C308.418 76.0236 309.2 76.5702 309.333 77.3828C309.48 78.1953 308.934 78.9635 308.123 79.1113L305.143 79.6283C304.332 79.7761 303.55 79.2295 303.417 78.4169C303.269 77.6044 303.815 76.8361 304.627 76.6884Z" fill="#4F3422"/>
<path fill-rule="evenodd" clip-rule="evenodd" d="M299.758 66.0073L301.529 63.5992C302.016 62.9344 302.96 62.7719 303.638 63.2594C304.302 63.7469 304.45 64.6777 303.978 65.3425C303.978 65.3425 303.978 65.3425 303.978 65.3572L302.207 67.7653C301.72 68.4301 300.776 68.5926 300.098 68.1051C299.434 67.6176 299.272 66.6869 299.758 66.0073C299.758 66.0221 299.758 66.0221 299.758 66.0073Z" fill="#4F3422"/>
<path fill-rule="evenodd" clip-rule="evenodd" d="M286.968 62.2252V59.8319C286.968 58.8273 287.779 58 288.797 58C289.815 58 290.627 58.8125 290.627 59.8319V62.2252C290.627 63.2298 289.815 64.0571 288.797 64.0571C287.779 64.0571 286.968 63.2298 286.968 62.2252Z" fill="#4F3422"/>
<path fill-rule="evenodd" clip-rule="evenodd" d="M273.779 67.3074L271.655 65.1948C271.065 64.6186 271.065 63.6731 271.64 63.0821C271.64 63.0821 271.64 63.0821 271.655 63.0674C272.245 62.4764 273.189 62.4764 273.779 63.0674L275.904 65.18C276.494 65.7561 276.494 66.7016 275.918 67.2926C275.918 67.2926 275.918 67.2926 275.904 67.3074C275.313 67.8835 274.369 67.8835 273.779 67.3074Z" fill="#4F3422"/>
<path fill-rule="evenodd" clip-rule="evenodd" d="M270.888 78.2692L267.863 78.0033C267.037 77.9294 266.432 77.2055 266.506 76.393C266.58 75.5657 267.303 74.96 268.129 75.0338L271.153 75.2998C271.979 75.3736 272.584 76.0975 272.51 76.9101C272.437 77.7374 271.714 78.3431 270.888 78.2692Z" fill="#4F3422"/>
<path d="M293.666 95.3474C293.651 95.3474 293.651 95.3474 293.666 95.3474L282.999 95.2883C281.893 95.2883 281.008 94.3871 281.023 93.2791C281.023 92.1859 281.922 91.2995 283.014 91.2995C283.014 91.2995 283.014 91.2995 283.029 91.2995L293.68 91.3586C294.787 91.3586 295.672 92.2597 295.657 93.3678C295.642 94.461 294.757 95.3474 293.666 95.3474Z" fill="#4F3422"/>
<path d="M291.231 102.542H285.375C284.268 102.542 283.383 101.641 283.383 100.548C283.383 99.4544 284.283 98.5532 285.375 98.5532H291.231C292.338 98.5532 293.223 99.4544 293.223 100.548C293.223 101.641 292.323 102.542 291.231 102.542Z" fill="#4F3422"/>
<path d="M244.535 24.7801C241.622 26.4619 237.835 26.1577 235.218 23.7791C235.036 23.6112 234.828 23.4582 234.623 23.3381C233.758 22.8138 232.737 22.6694 231.754 22.9131C230.77 23.1569 229.948 23.7682 229.425 24.633L229.251 24.9212C229.118 25.1342 228.986 25.3472 228.833 25.5548C227.461 27.456 225.433 28.6947 223.116 29.0773C220.804 29.4398 218.477 28.89 216.588 27.5069L215.64 26.809C215.467 26.6869 215.289 26.585 215.111 26.4831C214.169 26.0031 213.1 25.9211 212.102 26.2584C211.097 26.5828 210.293 27.2856 209.815 28.2272C209.614 28.6163 209.385 28.9872 209.141 29.3325C207.896 31.0409 206.066 32.1488 203.983 32.4645C201.899 32.7803 199.819 32.2754 198.11 31.0271L195.046 28.7876C194.16 28.1389 193.965 26.8867 194.612 26.0013C195.26 25.1159 196.511 24.9224 197.396 25.5711L200.461 27.8106C201.299 28.4357 202.332 28.6919 203.36 28.5249C204.396 28.3707 205.301 27.814 205.924 26.9763C206.046 26.8037 206.16 26.6182 206.255 26.4274C207.204 24.5315 208.845 23.1238 210.855 22.475C212.87 21.806 215.017 21.9827 216.912 22.9353C217.274 23.1189 217.645 23.3483 217.99 23.5925L218.951 24.283C219.982 25.0356 221.243 25.3312 222.507 25.1303C223.77 24.9294 224.873 24.2419 225.623 23.2114C225.696 23.1012 225.781 22.9837 225.854 22.8735L226.028 22.5852C227.097 20.8079 228.786 19.543 230.812 19.0388C232.825 18.542 234.926 18.8472 236.703 19.9193C237.142 20.1777 237.557 20.4838 237.929 20.8323C239.545 22.3043 242.05 22.1885 243.519 20.5727C243.661 20.4054 243.803 20.2382 243.93 20.0454L245.821 17.0944C246.413 16.1726 247.653 15.9004 248.575 16.494C249.497 17.0876 249.783 18.3212 249.178 19.2504L247.288 22.2013C247.046 22.5796 246.777 22.9397 246.473 23.2687C245.868 23.8737 245.225 24.3818 244.535 24.7801Z" fill="#FFCE5C"/>
<path d="M10.1334 132.294C4.8225 132.294 0.5 127.966 0.5 122.647C0.5 117.329 4.8225 113 10.1334 113C15.4443 113 19.7668 117.329 19.7668 122.647C19.7816 127.951 15.4443 132.294 10.1334 132.294ZM10.1334 116.974C7.02063 116.974 4.48319 119.515 4.48319 122.632C4.48319 125.75 7.02063 128.291 10.1334 128.291C13.2462 128.291 15.7836 125.75 15.7836 122.632C15.7836 119.515 13.2462 116.974 10.1334 116.974Z" fill="#C2B1FF"/>
<path d="M31.6736 285.965C31.0983 285.965 30.5377 285.728 30.1394 285.256C29.4313 284.413 29.5345 283.143 30.3902 282.449L61.5918 256.226C63.1261 254.94 64.0555 253.138 64.2325 251.144C64.4095 249.149 63.7899 247.214 62.5065 245.677C61.223 244.141 59.4232 243.21 57.4316 243.033C55.44 242.856 53.5074 243.476 51.9731 244.761L20.7715 270.984C19.9306 271.693 18.6766 271.59 17.9685 270.733C17.2604 269.891 17.3637 268.621 18.2193 267.926L49.421 241.688C51.7666 239.724 54.7319 238.778 57.7856 239.044C60.8394 239.31 63.5982 240.758 65.5602 243.092C67.5223 245.441 68.4665 248.41 68.2009 251.469C67.9354 254.527 66.4897 257.289 64.144 259.254L32.9424 285.492C32.5735 285.817 32.1162 285.965 31.6736 285.965Z" fill="#7D944D"/>
<path d="M156.464 311.642C149.87 311.642 144.5 306.117 144.5 299.321C144.5 292.525 149.87 287 156.464 287C157.571 287 158.456 287.901 158.456 288.994C158.456 290.102 157.556 290.989 156.464 290.989C152.068 290.989 148.483 294.727 148.483 299.306C148.483 303.901 152.068 307.624 156.464 307.624C157.571 307.624 158.456 308.525 158.456 309.618C158.456 310.711 157.571 311.642 156.464 311.642Z" fill="#FFCE5C"/>
</svg>
