<svg width="234" height="155" viewBox="0 0 234 155" fill="none" xmlns="http://www.w3.org/2000/svg">
<path d="M222.126 -31.462C199.228 -34.243 174.885 -39.0828 151.462 -37.7826C128.401 -36.5004 101.693 -19.8683 87.8956 0.953495C81.6112 10.4163 78.3786 21.7211 72.6721 31.527C68.049 39.4909 61.7826 46.0824 55.1009 52.0056C42.1708 63.4729 28.1933 72.701 18.0985 87.4911C-3.89709 119.726 -8.93548 176.575 20.5003 206.3C33.3943 219.32 51.2905 224.954 68.8256 226.562C93.5841 228.819 118.433 223.979 143.174 226.796C154.117 228.042 164.609 230.968 174.65 235.916C189.205 243.085 203.49 246.95 219.761 246.751C237.115 246.535 254.127 244.657 270.416 238.643C287.012 232.521 304.799 234.381 322.353 232.521C340.845 230.571 363.978 232.431 380.953 223.907C406.886 210.905 420.719 181.505 423.554 153.731C426.678 123.193 413.802 93.5769 390.073 73.9831C378.588 64.5203 369.053 55.2562 367.59 39.0756C366.235 24.141 362.443 15.1657 357.856 0.520088C345.883 -37.8187 302.759 -40.0399 270.018 -33.9722C250.334 -30.3243 240.944 -30.9202 224.438 -31.1911C222.072 -31.2272 224.438 -31.1911 222.126 -31.462Z" fill="#F5F5F5"/>
<path d="M34.2612 57.0081C40.2206 54.7147 46.1078 50.1458 49.7376 47.2022C60.1936 38.7146 69.7648 28.0961 70.9205 14.0283C70.9928 13.1795 71.0289 12.2946 70.7219 11.5C70.3426 10.4888 69.4758 9.73029 68.5368 9.20658C64.311 6.85894 58.8573 8.719 55.1733 11.8612C51.4893 15.0034 48.943 19.2473 45.566 22.7145C38.5592 29.92 28.338 33.4415 21.6743 40.9539C18.2973 44.7643 16.0941 50.8862 19.435 54.7689C23.3357 59.3377 28.8255 59.103 34.2612 57.0081Z" fill="#F5F5F5"/>
<path d="M238.669 264.186C253.501 231.766 259.1 197.655 257.571 160.799C256.579 136.792 248.358 114.853 232.871 101.607C183.192 59.162 139.31 105.008 139.31 105.008C124.498 87.9027 99.9762 76.1876 62.7268 92.1393C50.8133 97.2509 39.4757 108.966 33.0821 122.113C26.1326 136.374 25.9341 153.698 25.9142 170.167C25.8944 187.411 31.3547 223.352 37.3511 239.085C41.2031 249.169 48.4902 266.454 51.7466 268.303L238.669 264.186Z" fill="#ED7E1C"/>
<path d="M162.303 139.934C128.986 151.291 89.6314 142.659 66.4995 113.6C61.893 107.952 58.4182 101.825 55.9362 95.3812C58.1601 93.9889 60.4236 92.8154 62.7269 91.8607C99.9763 76.4461 124.498 87.7634 139.311 104.272C139.311 104.272 176.044 67.2371 220.342 92.2982C216.013 99.4984 211.685 106.698 205.827 113.143C194.232 126.33 178.506 134.047 162.303 139.934Z" fill="#F6A460"/>
<path d="M133.513 40.6244C129.601 25.4683 136.69 19.1434 143.083 17.0748C149.497 15.0063 156.744 18.0892 161.112 23.2606C163.575 26.1844 165.481 29.8839 168.956 31.4751C171.179 32.4894 173.701 32.4695 176.143 32.3701C184.264 32.032 192.425 31.0176 200.486 32.032C208.548 33.0463 216.768 36.4276 221.454 43.1305C225.485 48.8786 226.597 56.5362 231.581 61.4689C240.377 70.1607 256.142 65.8645 266.09 73.184C269.664 75.8094 272.186 79.8669 272.98 84.2427C274.687 93.7102 268.631 103.735 271.888 112.804C274.509 120.084 282.669 124.957 283.325 132.674C283.722 137.448 280.882 142.102 276.931 144.728C272.96 147.353 268.056 148.208 263.31 148.089C251.873 147.83 240.674 142.102 233.705 132.973C230.409 128.657 228.046 123.684 224.79 119.368C221.534 115.032 217.006 111.213 211.626 110.676C209.541 110.477 207.436 110.776 205.331 110.815C196.654 110.975 188.037 106.261 183.43 98.8418C178.725 91.2638 177.692 88.3201 171.219 82.2338C159.742 71.4536 151.76 85.7941 138.179 73.7807C132.878 69.0867 139.192 53.7317 135.578 47.6256C133.811 44.6222 140.284 42.852 136.928 42.0564L133.513 40.6244Z" fill="#3F3C36"/>
<path d="M135.637 26.0055C133.711 18.706 139.589 11.665 146.796 10.8296C151.184 10.3125 155.652 11.8042 159.226 14.3103C163.237 17.0949 165.719 21.769 169.948 24.1956C175.091 27.1393 181.167 25.8265 186.627 24.6928C191.214 23.758 195.78 22.8431 200.486 23.4596C208.548 24.4939 216.152 29.0487 220.739 35.8112C226.477 44.3041 225.266 56.2181 234.837 62.0657C244.268 67.8338 255.943 66.2028 265.951 70.2206C273.178 73.1245 279.731 79.6682 278.758 88.0219C277.705 97.211 269.227 105.207 275.223 114.396C277.785 118.334 281.557 121.437 283.483 125.793C285.171 129.631 284.814 133.848 282.649 137.428C277.11 146.578 265.454 146.16 256.936 141.903C255.884 141.386 256.817 139.815 257.85 140.332C266.348 144.589 280.128 144.39 282.57 132.834C284.337 124.44 275.045 119.428 272.146 112.566C269.108 105.366 273.694 98.7227 275.938 92.0596C277.368 87.8032 277.467 83.4672 274.985 79.5688C272.483 75.5908 268.254 72.9455 263.886 71.4537C255.189 68.4902 245.678 69.067 237.18 65.3873C229.496 62.0459 226.041 56.0391 223.777 48.2622C222.526 43.966 221.295 39.7295 218.615 36.0698C216.053 32.5692 212.559 29.7647 208.687 27.8553C204.795 25.9459 200.447 24.9514 196.098 25.1105C191.531 25.2696 187.104 26.6221 182.616 27.3381C178.486 27.9945 174.158 28.2332 170.266 26.463C166.056 24.5337 163.634 20.5557 160.298 17.5524C156.208 13.8727 150.231 11.3865 144.751 13.1368C139.628 14.7678 135.915 20.2176 137.325 25.568C137.683 26.6619 135.935 27.1392 135.637 26.0055Z" fill="#3F3C36"/>
<path d="M137.047 27.0399C129.005 25.2299 120.785 29.4466 117.906 37.303C115.245 44.5628 118.521 51.027 121.738 57.4116C124.18 62.2846 126.523 67.5753 125.272 73.1246C124.041 78.6142 119.792 82.4927 114.53 84.064C108.196 85.9535 97.1369 85.8342 97.1369 95.0432C97.1369 101.865 102.835 107.534 101.664 114.555C100.85 119.368 96.9383 121.516 92.431 121.914C89.8498 122.153 87.2487 121.934 84.6674 122.233C80.1999 122.75 77.9959 125.315 76.745 129.552C75.5139 133.709 72.7937 141.824 66.6781 139C63.2629 137.428 63.938 131.74 67.8695 131.561C69.041 131.501 69.041 133.331 67.8695 133.391C65.3478 133.51 66.4001 135.777 67.0752 136.573C68.207 137.926 69.4579 137.886 70.9868 136.971C72.5554 136.036 73.3894 134.266 73.985 132.595C74.9182 129.95 75.2757 127.086 76.8244 124.679C79.2468 120.88 83.6349 120.363 87.7848 120.263C90.2072 120.204 92.7686 120.363 95.1115 119.627C98.9636 118.434 100.353 114.953 99.8968 111.174C99.2018 105.267 94.8931 100.175 95.3697 94.0686C95.7469 89.2154 99.5195 86.1922 103.828 84.6806C110.023 82.5126 117.37 83.2286 121.54 77.1622C128.966 66.3819 116.258 55.6415 115.146 44.9407C113.855 32.3903 125.431 22.5846 137.523 25.2896C138.675 25.5283 138.199 27.2985 137.047 27.0399Z" fill="#3F3C36"/>
<path d="M199.93 107.673C210.315 107.156 218.872 115.55 218.892 125.952C218.892 132.436 215.715 138.841 219.27 144.986C220.957 147.91 223.995 150.635 227.49 150.854C229.595 150.993 232.295 150.019 232.871 147.691C233.685 144.41 228.741 141.605 227.788 145.663C227.51 146.796 225.762 146.319 226.04 145.185C227.391 139.497 235.273 141.705 234.797 147.234C234.221 153.997 225.643 153.4 221.672 150.396C218.932 148.348 216.966 145.325 216.132 142.003C215.14 138.025 216.132 134.007 216.728 130.049C218.356 119.309 211.585 108.926 199.97 109.503C198.759 109.543 198.759 107.733 199.93 107.673Z" fill="#3F3C36"/>
<path d="M150.688 48.9585C149.496 49.8336 148.285 49.5154 148.285 49.5154C148.206 48.7198 146.637 48.0038 146.637 48.0038C146.836 47.7253 147.769 46.8899 147.491 46.7109L150.688 48.9585Z" fill="#3F3C36"/>
<path d="M151.144 49.7342C150.251 50.3309 149.119 50.6292 148.047 50.3906C147.749 50.3309 147.471 50.0524 147.411 49.7541C147.312 49.2966 146.577 48.9784 146.18 48.7994C145.584 48.5209 145.684 47.785 146.001 47.3673C146.121 47.2281 146.24 47.0888 146.359 46.9496C146.518 46.7706 146.617 46.4723 146.617 46.7706C146.696 46.9894 146.796 47.2082 146.875 47.4071C146.855 47.3872 146.835 47.3673 146.835 47.3474C146.101 46.4524 147.371 45.1595 148.126 46.0546C148.96 47.0689 147.868 47.8645 147.272 48.6204C147.213 48.143 147.153 47.6656 147.094 47.1883C147.947 47.5861 148.96 48.2623 149.159 49.2369C148.94 49.0181 148.742 48.8193 148.523 48.6005C149 48.6999 149.714 48.4612 150.231 48.1231C151.204 47.5065 152.117 49.0977 151.144 49.7342Z" fill="#3F3C36"/>
<path d="M161.31 93.2132L144.194 26.7614C144.194 26.7614 114.51 45.8357 118.044 72.2295L131.943 68.331C131.943 68.331 129.342 81.4185 126.82 94.2872C124.458 106.34 134.902 117.001 146.974 114.873C147.133 114.853 147.292 114.814 147.45 114.794C157.458 112.984 163.851 103.079 161.31 93.2132Z" fill="#F6A460"/>
<path d="M160.774 54.4481C158.153 57.6305 153.467 58.0681 150.29 55.4426C147.113 52.8172 146.677 48.1232 149.298 44.9408C151.918 41.7584 156.604 41.3209 159.781 43.9463C162.938 46.5718 163.395 51.2857 160.774 54.4481Z" fill="#F6A460"/>
<path d="M151.521 50.6094C153.845 49.1773 156.188 47.7651 158.55 46.3927C159.563 45.796 160.476 47.3673 159.464 47.964C157.101 49.3364 154.778 50.7685 152.435 52.1807C151.442 52.7973 150.529 51.226 151.521 50.6094Z" fill="#3F3C36"/>
<path d="M131.963 68.3311L126.86 94.8641L142.01 64.751L131.963 68.3311Z" fill="#3F3C36"/>
<path d="M126.027 53.9308C126.027 53.9308 130.753 55.0247 137.266 53.2943C138.516 52.9562 139.688 54.0501 139.43 55.3032C138.854 57.9088 136.174 61.6878 125.809 63.1L126.027 53.9308Z" fill="white"/>
<path d="M126.305 52.9164C129.422 53.5926 132.897 53.1948 135.955 52.5385C138.635 51.9617 141.217 53.0755 140.244 56.2579C138.556 61.8469 130.931 63.4182 126.067 64.1342C124.736 64.3331 124.16 62.2845 125.511 62.0856C129.045 61.5684 136.967 60.4347 138.099 55.9595C138.596 54.0302 135.836 54.7462 134.605 54.9451C133.155 55.1838 131.686 55.323 130.217 55.3429C128.727 55.3628 127.198 55.2833 125.749 54.965C124.399 54.6667 124.975 52.618 126.305 52.9164Z" fill="#ED7E1C"/>
<path d="M131.626 39.6102C127.972 42.6931 124.378 46.1937 121.4 49.9131C121.182 49.396 120.963 48.8788 120.765 48.3617C122.651 48.5208 124.557 48.6799 126.463 48.839C127.615 48.9385 127.635 50.7485 126.463 50.6689C124.557 50.5098 122.671 50.3507 120.765 50.1916C119.931 50.112 119.613 49.2567 120.129 48.6401C123.108 44.9009 126.702 41.4201 130.355 38.3372C131.229 37.5615 132.519 38.8544 131.626 39.6102Z" fill="#3F3C36"/>
<path d="M142.507 54.9652C140.998 56.6558 138.893 57.5906 136.63 57.6105C135.458 57.6304 135.458 55.8005 136.63 55.8005C138.437 55.7806 140.025 55.0447 141.217 53.6922C142.011 52.8171 143.282 54.09 142.507 54.9652Z" fill="#3F3C36"/>
<path d="M143.143 43.071C140.78 41.5992 137.961 41.3804 135.419 42.5738C134.367 43.071 133.453 41.4997 134.506 41.0025C137.623 39.5306 141.118 39.6699 144.056 41.4997C145.049 42.1163 144.136 43.6876 143.143 43.071Z" fill="#3F3C36"/>
<path d="M141.555 42.1759C141.614 42.8323 141.555 43.4887 141.336 44.1052C141.158 44.6224 140.522 45.0003 140.006 44.6423C139.708 44.4434 139.43 44.2842 139.073 44.2445C138.755 44.2047 138.437 44.3041 138.12 44.3041C137.167 44.324 136.988 43.5284 136.908 42.7726C136.829 42.0168 136.829 41.2013 137.722 40.9229C138.477 40.7041 139.47 41.1417 140.185 41.3406C140.82 41.5196 141.098 42.3947 140.582 42.8522C139.887 43.4688 138.874 43.5085 138.199 42.8124C137.385 41.9571 138.676 40.6842 139.49 41.5196C139.45 41.4798 139.331 41.5395 139.291 41.5593C139.43 42.0566 139.549 42.5737 139.688 43.071C139.39 42.9914 139.093 42.9119 138.815 42.8323C138.676 42.7925 138.517 42.7527 138.378 42.7129C138.1 42.6931 138.08 42.6533 138.318 42.6135C138.417 42.5141 138.537 42.3947 138.636 42.2953C138.676 42.1163 138.676 42.1163 138.676 42.2555C138.676 42.3549 138.695 42.4544 138.695 42.5538C138.695 42.6334 138.815 43.1107 138.676 42.8522C138.576 42.7527 138.457 42.6334 138.358 42.5339C138.398 42.5538 138.417 42.5737 138.457 42.5936C138.298 42.5538 138.159 42.514 138 42.4743C138.437 42.4942 138.954 42.3947 139.45 42.4743C139.966 42.5538 140.463 42.7726 140.899 43.071C140.463 43.25 140.006 43.429 139.569 43.608C139.728 43.1107 139.788 42.6732 139.728 42.156C139.668 41.6588 140.185 41.2411 140.641 41.2411C141.177 41.261 141.495 41.6787 141.555 42.1759Z" fill="#3F3C36"/>
<path d="M141.158 45.5373C139.648 45.2986 138.139 45.3583 136.67 45.7163C135.538 45.9749 135.042 44.2246 136.194 43.966C138.02 43.5483 139.807 43.4886 141.654 43.787C142.786 43.9859 142.309 45.7362 141.158 45.5373Z" fill="#3F3C36"/>
<path d="M142.924 33.4644C141.554 32.9274 140.164 32.7881 138.735 33.1263C137.603 33.3848 137.107 31.6345 138.258 31.376C139.986 30.9782 141.753 31.0577 143.401 31.7141C144.493 32.1318 144.016 33.8821 142.924 33.4644Z" fill="#3F3C36"/>
<path d="M163.178 101.567C161.946 98.0465 160.735 94.526 159.504 91.0254C159.127 89.9115 160.874 89.4342 161.252 90.548C162.483 94.0685 163.694 97.589 164.925 101.09C165.322 102.184 163.555 102.661 163.178 101.567Z" fill="#3F3C36"/>
<path d="M110.761 33.0211L106.543 35.3304C103.975 37.2392 104.328 37.8754 103.739 41.0331L102.255 50.4118C102.207 50.7182 101.736 50.7182 101.689 50.4118L100.228 41.1038C99.6389 37.9697 99.7096 37.2863 97.1646 35.354L93.1587 33.0447C93.0173 32.9268 93.0173 32.6912 93.1587 32.5969L97.6831 30.429C100.204 28.4967 100.063 27.2242 100.629 24.1136L101.689 15.2298C101.736 14.9234 102.207 14.9234 102.255 15.2298L103.48 24.3964C104.046 27.507 104.352 28.803 106.873 30.7118L110.785 32.5498C110.926 32.6912 110.926 32.9033 110.761 33.0211Z" fill="#FFBD1A"/>
<path d="M86.7323 53.0509L82.5142 55.3602C79.9457 57.269 80.2991 57.9052 79.71 61.0629L78.2019 70.4181C78.1548 70.7244 77.6835 70.7244 77.6363 70.4181L76.1753 61.11C75.5862 57.9759 75.6569 57.2925 73.1119 55.3602L69.1059 53.0509C68.9645 52.9331 68.9645 52.6974 69.1059 52.6031L73.6303 50.4352C76.1518 48.5029 76.0104 47.2304 76.5759 44.1199L77.6128 35.2595C77.6599 34.9532 78.1312 34.9532 78.1783 35.2595L79.4037 44.4262C79.9692 47.5367 80.2991 48.8328 82.797 50.7415L86.7087 52.5796C86.8737 52.721 86.8737 52.9566 86.7323 53.0509Z" fill="#FFBD1A"/>
</svg>
