<svg width="375" height="812" viewBox="0 0 375 812" fill="none" xmlns="http://www.w3.org/2000/svg">
<g clip-path="url(#clip0_2_84)">
<rect width="375" height="812" rx="40" fill="#251404"/>
<path d="M187 486C264.32 486 327 548.68 327 626V626C327 703.32 264.32 766 187 766V766C109.68 766 47 703.32 47 626V626C47 548.68 109.68 486 187 486V486Z" fill="#4F3422"/>
<path d="M-33 266C44.3199 266 107 328.68 107 406V406C107 483.32 44.3199 546 -33 546V546C-110.32 546 -173 483.32 -173 406V406C-173 328.68 -110.32 266 -33 266V266Z" fill="#4F3422"/>
<path d="M187 46C264.32 46 327 108.68 327 186V186C327 263.32 264.32 326 187 326V326C109.68 326 47 263.32 47 186V186C47 108.68 109.68 46 187 46V46Z" fill="#4F3422"/>
<path d="M407 266C484.32 266 547 328.68 547 406V406C547 483.32 484.32 546 407 546V546C329.68 546 267 483.32 267 406V406C267 328.68 329.68 266 407 266V266Z" fill="#4F3422"/>
<path d="M114.35 417V396H118.01V413.34H126.755V417H114.35ZM135.122 417.39C133.742 417.39 132.482 417.035 131.342 416.325C130.212 415.615 129.307 414.665 128.627 413.475C127.957 412.275 127.622 410.95 127.622 409.5C127.622 408.4 127.817 407.375 128.207 406.425C128.597 405.465 129.132 404.625 129.812 403.905C130.502 403.175 131.302 402.605 132.212 402.195C133.122 401.785 134.092 401.58 135.122 401.58C136.502 401.58 137.757 401.935 138.887 402.645C140.027 403.355 140.932 404.31 141.602 405.51C142.282 406.71 142.622 408.04 142.622 409.5C142.622 410.59 142.427 411.61 142.037 412.56C141.647 413.51 141.107 414.35 140.417 415.08C139.737 415.8 138.942 416.365 138.032 416.775C137.132 417.185 136.162 417.39 135.122 417.39ZM135.122 413.73C135.852 413.73 136.507 413.535 137.087 413.145C137.667 412.755 138.122 412.24 138.452 411.6C138.792 410.96 138.962 410.26 138.962 409.5C138.962 408.72 138.787 408.01 138.437 407.37C138.097 406.72 137.632 406.205 137.042 405.825C136.462 405.435 135.822 405.24 135.122 405.24C134.402 405.24 133.752 405.435 133.172 405.825C132.592 406.215 132.132 406.735 131.792 407.385C131.452 408.035 131.282 408.74 131.282 409.5C131.282 410.29 131.457 411.005 131.807 411.645C132.157 412.285 132.622 412.795 133.202 413.175C133.792 413.545 134.432 413.73 135.122 413.73ZM156.027 402H159.687V417H156.027L155.862 415.14C155.452 415.81 154.907 416.355 154.227 416.775C153.557 417.185 152.762 417.39 151.842 417.39C150.732 417.39 149.692 417.18 148.722 416.76C147.752 416.34 146.897 415.76 146.157 415.02C145.427 414.28 144.852 413.425 144.432 412.455C144.022 411.485 143.817 410.445 143.817 409.335C143.817 408.265 144.012 407.26 144.402 406.32C144.802 405.38 145.357 404.555 146.067 403.845C146.777 403.135 147.597 402.58 148.527 402.18C149.457 401.78 150.457 401.58 151.527 401.58C152.517 401.58 153.402 401.8 154.182 402.24C154.972 402.68 155.642 403.24 156.192 403.92L156.027 402ZM151.752 413.865C152.532 413.865 153.222 413.67 153.822 413.28C154.422 412.89 154.892 412.365 155.232 411.705C155.572 411.035 155.742 410.3 155.742 409.5C155.742 408.69 155.572 407.955 155.232 407.295C154.892 406.625 154.417 406.095 153.807 405.705C153.207 405.315 152.522 405.12 151.752 405.12C150.982 405.12 150.277 405.32 149.637 405.72C149.007 406.11 148.502 406.635 148.122 407.295C147.752 407.955 147.567 408.69 147.567 409.5C147.567 410.31 147.757 411.045 148.137 411.705C148.517 412.365 149.022 412.89 149.652 413.28C150.292 413.67 150.992 413.865 151.752 413.865ZM173.423 394.5H177.083V417H173.423V415.125C172.943 415.795 172.338 416.34 171.608 416.76C170.878 417.18 170.033 417.39 169.073 417.39C167.983 417.39 166.963 417.185 166.013 416.775C165.063 416.365 164.223 415.8 163.493 415.08C162.773 414.35 162.208 413.51 161.798 412.56C161.388 411.61 161.183 410.59 161.183 409.5C161.183 408.41 161.388 407.39 161.798 406.44C162.208 405.49 162.773 404.655 163.493 403.935C164.223 403.205 165.063 402.635 166.013 402.225C166.963 401.815 167.983 401.61 169.073 401.61C170.033 401.61 170.878 401.82 171.608 402.24C172.338 402.65 172.943 403.195 173.423 403.875V394.5ZM169.118 413.865C169.898 413.865 170.588 413.67 171.188 413.28C171.788 412.89 172.258 412.365 172.598 411.705C172.938 411.035 173.108 410.3 173.108 409.5C173.108 408.69 172.938 407.955 172.598 407.295C172.258 406.625 171.783 406.095 171.173 405.705C170.573 405.315 169.888 405.12 169.118 405.12C168.348 405.12 167.643 405.32 167.003 405.72C166.373 406.11 165.868 406.635 165.488 407.295C165.118 407.955 164.933 408.69 164.933 409.5C164.933 410.31 165.123 411.045 165.503 411.705C165.883 412.365 166.388 412.89 167.018 413.28C167.658 413.67 168.358 413.865 169.118 413.865ZM180.386 402H184.046V417H180.386V402ZM182.246 400.065C181.706 400.065 181.251 399.89 180.881 399.54C180.511 399.18 180.326 398.73 180.326 398.19C180.326 397.66 180.511 397.215 180.881 396.855C181.251 396.495 181.701 396.315 182.231 396.315C182.761 396.315 183.206 396.495 183.566 396.855C183.936 397.215 184.121 397.66 184.121 398.19C184.121 398.73 183.941 399.18 183.581 399.54C183.221 399.89 182.776 400.065 182.246 400.065ZM200.975 407.52V417H197.315V408.48C197.315 407.89 197.17 407.355 196.88 406.875C196.59 406.385 196.2 406 195.71 405.72C195.23 405.43 194.695 405.285 194.105 405.285C193.515 405.285 192.975 405.43 192.485 405.72C192.005 406 191.62 406.385 191.33 406.875C191.05 407.355 190.91 407.89 190.91 408.48V417H187.25L187.235 402H190.895L190.91 403.335C191.42 402.795 192.03 402.37 192.74 402.06C193.45 401.74 194.215 401.58 195.035 401.58C196.125 401.58 197.12 401.85 198.02 402.39C198.92 402.92 199.635 403.635 200.165 404.535C200.705 405.425 200.975 406.42 200.975 407.52ZM214.5 402H218.16V417.285C218.16 418.365 217.94 419.345 217.5 420.225C217.06 421.115 216.46 421.875 215.7 422.505C214.94 423.145 214.07 423.635 213.09 423.975C212.11 424.325 211.08 424.5 210 424.5C208.95 424.5 207.94 424.285 206.97 423.855C206 423.425 205.14 422.835 204.39 422.085C203.65 421.345 203.085 420.5 202.695 419.55L206.04 418.035C206.24 418.585 206.54 419.065 206.94 419.475C207.35 419.895 207.82 420.22 208.35 420.45C208.88 420.69 209.43 420.81 210 420.81C210.58 420.81 211.135 420.73 211.665 420.57C212.205 420.41 212.69 420.175 213.12 419.865C213.55 419.565 213.885 419.195 214.125 418.755C214.375 418.325 214.5 417.835 214.5 417.285V415.17C214.03 415.83 213.44 416.365 212.73 416.775C212.02 417.185 211.2 417.39 210.27 417.39C209.19 417.39 208.18 417.185 207.24 416.775C206.3 416.365 205.47 415.8 204.75 415.08C204.04 414.35 203.48 413.51 203.07 412.56C202.67 411.61 202.47 410.59 202.47 409.5C202.47 408.41 202.67 407.39 203.07 406.44C203.48 405.49 204.04 404.655 204.75 403.935C205.47 403.205 206.3 402.635 207.24 402.225C208.18 401.815 209.19 401.61 210.27 401.61C211.2 401.61 212.02 401.815 212.73 402.225C213.44 402.625 214.03 403.155 214.5 403.815V402ZM210.315 413.865C211.085 413.865 211.765 413.67 212.355 413.28C212.955 412.88 213.425 412.35 213.765 411.69C214.105 411.02 214.275 410.29 214.275 409.5C214.275 408.7 214.1 407.97 213.75 407.31C213.41 406.65 212.94 406.12 212.34 405.72C211.75 405.32 211.075 405.12 210.315 405.12C209.565 405.12 208.88 405.32 208.26 405.72C207.64 406.11 207.145 406.635 206.775 407.295C206.405 407.955 206.22 408.69 206.22 409.5C206.22 410.31 206.405 411.045 206.775 411.705C207.145 412.365 207.64 412.89 208.26 413.28C208.88 413.67 209.565 413.865 210.315 413.865ZM237.526 396L231.436 418.68H227.776L233.866 396H237.526ZM249.384 396L243.294 418.68H239.634L245.724 396H249.384ZM261.242 396L255.152 418.68H251.492L257.582 396H261.242Z" fill="white"/>
<rect x="121" y="799" width="134" height="5" rx="2.5" fill="white"/>
</g>
<defs>
<clipPath id="clip0_2_84">
<rect width="375" height="812" rx="40" fill="white"/>
</clipPath>
</defs>
</svg>
