<svg width="73" height="73" viewBox="0 0 73 73" fill="none" xmlns="http://www.w3.org/2000/svg">
<path d="M36.5 44.6765C44.232 44.6765 50.5 50.9445 50.5 58.6765C50.5 66.4084 44.232 72.6765 36.5 72.6765C28.768 72.6765 22.5 66.4084 22.5 58.6765C22.5 50.9445 28.768 44.6765 36.5 44.6765Z" fill="#926247"/>
<path d="M14.5 22.6765C22.232 22.6765 28.5 28.9445 28.5 36.6765C28.5 44.4084 22.232 50.6765 14.5 50.6765C6.76801 50.6765 0.5 44.4084 0.5 36.6765C0.5 28.9445 6.76801 22.6765 14.5 22.6765Z" fill="#926247"/>
<path d="M36.5 0.676453C44.232 0.676453 50.5 6.94447 50.5 14.6765C50.5 22.4084 44.232 28.6765 36.5 28.6765C28.768 28.6765 22.5 22.4084 22.5 14.6765C22.5 6.94447 28.768 0.676453 36.5 0.676453Z" fill="#926247"/>
<path d="M58.5 22.6765C66.232 22.6765 72.5 28.9445 72.5 36.6765C72.5 44.4084 66.232 50.6765 58.5 50.6765C50.768 50.6765 44.5 44.4084 44.5 36.6765C44.5 28.9445 50.768 22.6765 58.5 22.6765Z" fill="#926247"/>
</svg>
