<svg width="40" height="40" viewBox="0 0 40 40" fill="none" xmlns="http://www.w3.org/2000/svg">
<path d="M20 16C24.4183 16 28 12.4183 28 8C28 3.58172 24.4183 0 20 0C15.5817 0 12 3.58172 12 8C12 12.4183 15.5817 16 20 16Z" fill="white"/>
<path d="M20 40C24.4183 40 28 36.4183 28 32C28 27.5817 24.4183 24 20 24C15.5817 24 12 27.5817 12 32C12 36.4183 15.5817 40 20 40Z" fill="white"/>
<path d="M32 28C27.5817 28 24 24.4183 24 20C24 15.5817 27.5817 12 32 12C36.4183 12 40 15.5817 40 20C40 24.4183 36.4183 28 32 28Z" fill="white"/>
<path d="M0 20C0 24.4183 3.58172 28 8 28C12.4183 28 16 24.4183 16 20C16 15.5817 12.4183 12 8 12C3.58172 12 0 15.5817 0 20Z" fill="white"/>
</svg>
