<svg width="65" height="64" viewBox="0 0 65 64" fill="none" xmlns="http://www.w3.org/2000/svg">
<rect x="0.5" width="64" height="64" rx="32" fill="#4F3422"/>
<path d="M32.5 35.5556C35.9364 35.5556 38.7222 38.3414 38.7222 41.7778C38.7222 45.2142 35.9364 48 32.5 48C29.0636 48 26.2778 45.2142 26.2778 41.7778C26.2778 38.3414 29.0636 35.5556 32.5 35.5556Z" fill="white"/>
<path d="M22.7222 25.7778C26.1587 25.7778 28.9445 28.5636 28.9445 32C28.9445 35.4364 26.1587 38.2222 22.7222 38.2222C19.2858 38.2222 16.5 35.4364 16.5 32C16.5 28.5636 19.2858 25.7778 22.7222 25.7778Z" fill="white"/>
<path d="M32.5 16C35.9364 16 38.7222 18.7858 38.7222 22.2222C38.7222 25.6587 35.9364 28.4444 32.5 28.4444C29.0636 28.4444 26.2778 25.6587 26.2778 22.2222C26.2778 18.7858 29.0636 16 32.5 16Z" fill="white"/>
<path d="M42.2778 25.7778C45.7142 25.7778 48.5 28.5636 48.5 32C48.5 35.4364 45.7142 38.2222 42.2778 38.2222C38.8413 38.2222 36.0556 35.4364 36.0556 32C36.0556 28.5636 38.8413 25.7778 42.2778 25.7778Z" fill="white"/>
</svg>
