<svg width="238" height="155" viewBox="0 0 238 155" fill="none" xmlns="http://www.w3.org/2000/svg">
<path d="M166.168 42.9823C233.496 65.9736 256.703 44.2125 307.141 57.6781C324.68 62.3661 366.955 74.0695 356.565 150.092C355.052 161.197 364.578 177.106 370.712 186.349C376.514 195.077 404.725 272.313 307.125 291.347C230.736 306.243 155.379 318.844 79.3069 290.865C52.7747 281.107 22.286 271.033 7.24109 246.279C-6.42398 223.803 -0.106781 181.312 20.7898 162.394C83.1969 105.888 38.9102 84.177 86.9873 49.765C105.789 36.316 131.39 31.1127 166.168 42.9823Z" fill="#F5F5F5"/>
<path d="M23.9486 133.75C25.6277 126.436 28.1213 118.988 30.2825 111.624C30.7147 110.127 31.1802 108.581 32.1277 107.152C34.0561 104.242 37.4309 103.212 39.9245 103.777C47.688 105.539 49.7826 114.001 46.7238 122.346C44.413 128.68 39.2761 136.427 32.7595 140.45C30.4986 141.846 27.8221 142.91 25.9269 142.278C22.8681 141.281 23.2172 136.942 23.9486 133.75Z" fill="#F5F5F5"/>
<path d="M249.197 154.408C251.514 157.549 252.012 158.679 255.018 160.249C259.193 162.432 263.158 159.751 265.973 155.94C280.355 136.425 291.941 95.0979 294.009 95.232C349.26 99.2536 354.756 115.225 310.211 204.334C287.575 249.339 235.753 229.786 226.886 219.885C225.928 218.812 211.91 219.77 229.165 211.037C230.122 210.558 222.73 207.532 222.06 206.671C217.789 201.079 224.549 194.318 220.834 188.362C232.382 178.806 242.628 167.565 249.197 154.408Z" fill="#CFD9B5"/>
<path d="M201.53 164.941C201.703 164.424 202.181 164.098 202.641 163.811C212.063 157.702 222.615 153.374 233.608 151.114L245.807 150.099C247.722 152.339 249.599 154.599 251.437 156.916C244.371 172.563 232.957 186.141 219.896 197.823C213.193 187.941 207.161 177.58 201.875 166.875C201.607 166.243 201.3 165.553 201.53 164.941Z" fill="#3F3C36"/>
<path d="M196.321 100.556C217.406 114.651 236.002 132.998 253.773 150.559C244.447 162.643 232.899 174.248 219.398 181.392C240.674 213.125 269.132 286.51 267.198 314.701C266.796 320.733 267.505 327.091 264.709 332.453C261.893 337.854 256.857 341.378 251.226 343.963C247.3 323.74 241.823 303.785 235.37 284.232C213.652 216.361 196.474 147.476 165.067 84.163C176.136 88.357 186.497 93.9873 196.321 100.556Z" fill="#9BB168"/>
<path d="M157.866 81.6538C160.299 82.4199 162.712 83.2434 165.067 84.1435C196.474 147.475 213.653 216.342 235.37 284.212C241.824 303.765 247.301 323.72 251.227 343.943C248.45 345.227 245.52 346.261 242.647 347.18C219.168 354.649 194.732 358 170.065 358.9C168.744 265.674 147.084 172.295 126.612 76.6172C137.03 76.7321 147.621 78.4557 157.866 81.6538Z" fill="white"/>
<path d="M52.1738 120.588C61.3279 101.073 76.4762 88.4528 94.1907 81.9415C104.379 78.2071 115.41 76.4835 126.651 76.6176C147.124 172.314 168.764 265.674 170.105 358.901C151.088 359.59 131.937 358.805 112.997 357.33C110.546 357.139 107.807 356.794 106.237 354.898C104.187 352.428 105.183 348.751 106.083 345.667C111.58 326.823 109.531 306.695 106.907 287.238C102.636 255.525 97.025 223.983 90.0733 192.729C89.5371 190.335 89.0008 187.903 88.6561 185.452C85.5537 186.984 82.4704 188.535 79.3871 190.067C68.4329 195.563 42.4261 181.909 39.0364 193.687C36.9681 167.527 40.5493 145.369 52.1738 120.588Z" fill="#9BB168"/>
<path d="M39.5334 200.198C44.685 209.237 67.0148 206.211 89.4213 193.437C111.828 180.664 125.808 162.988 120.656 153.948C115.505 144.909 93.1749 147.935 70.7684 160.709C48.3619 173.482 34.3819 191.178 39.5334 200.198Z" fill="#3F3C36"/>
<path d="M104.762 151.095C109.549 156.304 117.401 166.32 122.189 171.51C130.998 160.939 143.599 153.604 157.139 151.172C179.22 147.207 193.219 171.931 193.794 173.233C193.794 173.233 189.638 187.424 184.601 180.147C183.51 178.576 181.116 180.013 181.978 181.717C186.899 191.465 178.703 197.134 175.294 191.388C176.271 200.791 172.306 212.875 167.193 220.804C157.56 235.742 145.821 247.826 127.819 251.867C86.1278 261.25 58.3017 225.4 46.0452 192.116C50.2966 182.253 82.8147 152.436 104.762 151.095Z" fill="#CFD9B5"/>
<path d="M119.507 155.366C114.642 146.748 110.563 137.689 105.699 129.072C105.144 128.095 106.657 127.214 107.212 128.191C112.076 136.809 116.155 145.867 121.02 154.485C121.575 155.461 120.062 156.342 119.507 155.366Z" fill="#3F3C36"/>
<path d="M133.544 160.843C133.544 160.843 145.781 147.743 152.561 143.071C164.185 135.085 165.258 130.297 170.926 123.269C172.42 121.43 175.427 122.579 175.503 125.031C175.656 130.316 173.129 137.019 170.505 140.753C168.054 144.239 171.252 149.18 175.35 148.222C190.556 144.66 208.941 140.026 220.852 139.757C224.089 139.681 228.896 141.749 227.862 144.967C227.498 146.077 226.483 146.709 225.506 147.226C216.352 152.148 202.2 155.806 191.226 157.817C196.224 158.832 208.117 155.653 210.281 162.126C212.12 167.641 207.658 172.467 202.468 172.467C205.781 171.433 222.27 184.379 173.186 197.842L133.544 160.843Z" fill="#CFD9B5"/>
<path d="M132.913 160.211C139.137 153.565 145.61 146.939 153.04 141.654C158.575 137.709 162.788 133.151 166.637 127.616C168.361 125.146 171.999 118.596 175.542 122.771C177.228 124.743 176.308 128.267 175.791 130.546C175.006 134.127 173.532 137.421 171.693 140.562C170.736 142.19 170.065 143.569 171.08 145.407C172.421 147.801 174.738 147.437 177.017 146.901C181.249 145.905 185.482 144.89 189.714 143.933C197.087 142.247 204.479 140.639 211.967 139.624C216.659 138.992 224.492 137.211 227.977 141.692C232.344 147.284 220.355 150.655 216.985 151.899C208.731 154.944 200.094 157.032 191.457 158.64C191.457 158.085 191.457 157.51 191.457 156.955C197.049 157.913 205.341 154.906 209.803 159.636C215.127 165.267 208.75 173.042 202.468 173.329C201.473 173.367 201.3 171.854 202.239 171.606C204.958 170.878 207.85 173.961 208.463 176.317C210.09 182.387 202.564 187.079 198.236 189.435C190.499 193.667 181.881 196.329 173.417 198.666C172.325 198.972 171.865 197.268 172.957 196.98C181.364 194.644 189.963 192.039 197.623 187.788C200.879 185.969 204.939 183.556 206.471 179.936C207.448 177.638 205.743 172.486 202.717 173.31C202.641 172.735 202.564 172.161 202.488 171.586C210.186 171.222 212.886 160.498 204.479 159.043C200.017 158.277 195.459 159.426 191.016 158.66C190.174 158.506 190.193 157.127 191.016 156.974C197.815 155.71 204.556 154.121 211.163 152.053C214.476 151.018 217.77 149.85 220.949 148.471C222.29 147.878 223.898 147.322 225.105 146.46C228.437 144.067 226.292 141.749 223.439 140.964C220.872 140.256 218.019 140.715 215.414 140.983C211.737 141.366 208.08 141.96 204.422 142.649C197.336 143.971 190.289 145.599 183.279 147.246C179.047 148.242 172.421 151.363 169.586 146.307C168.686 144.718 168.591 142.822 169.318 141.137C170.64 138.111 172.517 135.602 173.512 132.346C174.068 130.527 174.527 128.631 174.623 126.735C174.642 126.237 174.815 125.05 174.585 124.571C173.053 121.277 171.061 124.514 170.41 125.375C169.031 127.214 167.767 129.148 166.427 131.006C163.401 135.238 159.82 138.819 155.664 141.922C147.869 147.782 140.86 154.312 134.196 161.456C133.391 162.279 132.147 161.034 132.913 160.211Z" fill="#3F3C36"/>
<path d="M171.693 124.533C172.478 128.593 169.472 132.844 165.163 132.748C164.033 132.729 164.033 130.967 165.163 131.006C168.265 131.082 170.583 127.98 170.008 124.992C169.797 123.901 171.483 123.422 171.693 124.533Z" fill="#3F3C36"/>
<path d="M224.357 141.615C223.074 141.577 221.791 141.615 220.546 141.998C219.934 142.19 219.34 142.324 218.995 142.917C218.478 143.243 218.459 143.588 218.957 143.971C219.11 144.526 219.474 144.775 220.068 144.679C222.289 144.928 224.625 144.813 226.866 144.871C227.996 144.909 227.996 146.652 226.866 146.613C224.472 146.556 221.944 146.709 219.57 146.365C218.344 146.192 217.157 145.541 216.869 144.239C216.046 140.294 221.791 139.757 224.338 139.853C225.487 139.892 225.487 141.653 224.357 141.615Z" fill="#3F3C36"/>
<path d="M174.03 152.55C174.413 154.025 174.777 155.499 175.16 156.974C175.447 158.065 173.742 158.525 173.474 157.433C173.091 155.959 172.727 154.484 172.344 153.01C172.057 151.918 173.762 151.458 174.03 152.55Z" fill="white"/>
<path d="M219.934 -1.44122L223.113 0.282349C225.047 1.71866 224.779 2.19743 225.22 4.55298L226.33 11.6005C226.369 11.8303 226.713 11.8303 226.752 11.6005L227.843 4.59128C228.284 2.23573 228.226 1.71866 230.141 0.2632L233.148 -1.46037C233.263 -1.53698 233.263 -1.70933 233.148 -1.80509L229.758 -3.43291C227.862 -4.86922 227.977 -5.82676 227.537 -8.18231L226.752 -14.8276C226.713 -15.0575 226.369 -15.0575 226.33 -14.8276L225.411 -7.93335C224.99 -5.59695 224.741 -4.62026 222.864 -3.18395L219.915 -1.80509C219.819 -1.69018 219.819 -1.51783 219.934 -1.44122Z" fill="white"/>
<path d="M158.02 35.8835C160.643 33.6045 160.892 29.7169 160.394 26.2889C159.916 22.8609 158.881 19.3563 159.647 16.0049C160.413 12.6727 163.861 9.60854 167.365 10.681C168.189 10.9299 168.955 11.3896 169.817 11.5236C173.11 12.0407 174.585 8.03817 176.711 5.70177C179.162 3.02066 183.777 2.40783 187.071 4.32292C190.385 6.238 191.993 10.4703 190.71 13.8217C189.906 15.9092 188.412 18.7243 190.461 19.9117C191.074 20.2755 191.802 20.2947 192.51 20.333C194.674 20.4479 196.915 20.7926 198.773 21.9034C200.649 23.0141 202.066 25.0058 201.875 27.0549C201.607 29.851 198.658 31.4979 196.091 32.8576C193.525 34.2173 190.729 36.2665 191.036 39.0816C191.246 40.8818 192.721 42.4139 193.046 44.1949C193.621 47.3165 190.614 49.8444 187.665 51.1658C184.275 52.6787 180.541 53.5405 176.749 53.6554C174.623 53.732 172.421 53.5597 170.41 54.1533C168.399 54.747 166.542 56.3557 166.561 58.3857L158.02 35.8835Z" fill="#3F3C36"/>
<path d="M146.204 62.6944L130.826 61.6603C134.694 43.218 152.16 33.2404 163.459 28.6059C169.166 26.2695 173.321 25.2928 173.321 25.2928L171.617 44.7118L166.906 98.2958C165.948 109.097 156.009 116.642 145.304 114.88C145.131 114.861 144.959 114.823 144.787 114.804C131.879 112.64 125.157 98.2 131.841 86.9393C138.926 74.9126 146.204 62.6944 146.204 62.6944Z" fill="#CFD9B5"/>
<path d="M180.119 59.0177C176.347 61.2775 171.482 60.0519 169.223 56.2791C166.963 52.5064 168.189 47.6421 171.961 45.3823C175.734 43.1225 180.598 44.3482 182.858 48.1209C185.099 51.8936 183.892 56.7771 180.119 59.0177Z" fill="#CFD9B5"/>
<path d="M172.134 51.9703C174.987 51.3766 177.841 50.7829 180.694 50.2275C181.805 50.0169 182.265 51.7021 181.154 51.9128C178.301 52.4682 175.447 53.0619 172.594 53.6555C171.502 53.9045 171.023 52.2001 172.134 51.9703Z" fill="#3F3C36"/>
<path d="M146.185 62.6945L131.631 87.5331L157.58 62.6754L146.185 62.6945Z" fill="#3F3C36"/>
<path d="M155.875 33.7001C151.183 35.4812 146.395 37.6835 142.125 40.3263C142.125 39.8284 142.125 39.3113 142.125 38.8134C143.982 39.656 145.821 40.4795 147.679 41.3221C148.713 41.7818 147.813 43.2947 146.798 42.8351C144.94 41.9924 143.101 41.1689 141.244 40.3263C140.612 40.039 140.727 39.1198 141.244 38.8134C145.649 36.094 150.57 33.8342 155.415 32.0149C156.469 31.6127 156.928 33.298 155.875 33.7001Z" fill="#3F3C36"/>
<path d="M144.977 44.1758L143.828 46.8187C148.291 49.653 153.327 51.4915 158.536 52.3532C159.455 51.7979 160.336 51.185 161.16 50.4956C155.376 49.7104 149.765 47.5272 144.977 44.1758Z" fill="white"/>
<path d="M144.557 55.2067C147.506 55.5897 150.532 55.3599 153.385 54.5364C152.543 54.0768 151.662 53.6937 150.704 53.4448C148.483 52.966 146.089 53.598 144.557 55.2067Z" fill="#ED7E1C"/>
<path d="M143.848 46.7997L140.611 54.2877C141.894 54.7282 143.235 55.0154 144.576 55.1878C146.088 53.5791 148.501 52.9663 150.723 53.4259C151.681 53.694 152.561 54.0579 153.404 54.5175C155.204 54.0004 156.947 53.2727 158.556 52.3152C153.327 51.4917 148.291 49.6532 143.848 46.7997Z" fill="#3F3C36"/>
<path d="M158.383 38.4111C162.194 37.5494 165.948 38.9665 168.322 42.0498C169.012 42.9499 167.48 43.8117 166.81 42.9307C164.933 40.4986 161.83 39.4261 158.862 40.0964C157.751 40.3645 157.292 38.6601 158.383 38.4111Z" fill="#3F3C36"/>
<path d="M162.463 40.2881C162.329 41.035 162.884 41.8393 163.631 41.9734C164.378 42.1074 165.182 41.5712 165.336 40.8435C164.742 41.3989 163.574 40.9775 163.497 40.1732C164.053 40.1158 164.627 40.3647 164.972 40.8052L162.463 40.2881Z" fill="#3F3C36"/>
<path d="M163.324 40.2883C163.228 41.0926 164.243 41.4565 164.473 40.5947C164.952 40.882 165.45 41.1693 165.928 41.4565C164.818 42.3566 162.903 41.9353 162.635 40.4032C162.539 39.8287 162.864 39.3116 163.477 39.2925C164.281 39.2542 165.048 39.5797 165.565 40.1734C166.311 41.016 165.086 42.2608 164.32 41.4182C164.071 41.1309 163.841 41.0352 163.458 41.0352C163.745 40.6713 164.013 40.2883 164.301 39.9244C164.32 40.0394 164.511 40.3458 164.684 40.2117C165.335 39.6755 166.388 40.1543 166.139 41.0735C165.833 42.2225 164.684 43.046 163.477 42.8354C162.309 42.6439 161.428 41.4757 161.562 40.2883C161.62 39.8095 161.926 39.4074 162.443 39.4074C162.883 39.4074 163.381 39.8095 163.324 40.2883Z" fill="#3F3C36"/>
<path d="M161.754 41.3034C163.42 41.2651 164.952 41.8779 166.158 43.0078C166.982 43.7738 165.737 45.0186 164.913 44.2526C164.032 43.4291 162.941 43.0461 161.734 43.0653C160.624 43.0844 160.624 41.3225 161.754 41.3034Z" fill="#3F3C36"/>
<path d="M196.418 31.2873C193.468 32.1874 192.051 35.7494 194.349 38.1624C195.211 39.0625 196.552 39.3689 197.337 40.3648C198.505 41.8585 198.294 43.9268 197.567 45.5546C195.307 50.6679 189.14 51.4148 184.257 51.7595C183.127 51.8361 183.127 50.0934 184.257 50.0168C187.953 49.7678 192.128 49.4614 194.809 46.5888C196.513 44.7503 196.896 42.4139 194.847 40.652C194.005 39.9243 193.22 39.6753 192.511 38.6986C189.964 35.1749 192.051 30.7893 195.939 29.602C197.031 29.2573 197.509 30.9617 196.418 31.2873Z" fill="#3F3C36"/>
<path d="M191.744 25.5417C188.182 24.6799 188.469 20.7348 190.02 18.226C191.629 15.6024 194.272 13.0745 193.621 9.66563C192.816 5.41415 187.684 4.51406 184.83 7.23348C184.007 8.01866 182.781 6.77386 183.586 5.98868C186.726 3.00115 191.801 3.0969 194.31 6.86961C195.574 8.76554 195.727 11.0445 195.038 13.1894C194.368 15.3151 187.875 22.8222 192.223 23.8564C193.295 24.1053 192.835 25.7906 191.744 25.5417Z" fill="#3F3C36"/>
<path d="M159.532 28.1275C158.939 24.9102 157.062 21.9992 156.832 18.7053C156.64 16.0625 157.502 13.3622 159.092 11.2556C160.413 9.51291 162.577 7.55952 164.894 7.55952C166.235 7.55952 167.039 8.2298 168.131 8.90008C170.506 10.3364 173.244 10.3555 175.064 7.90424C175.734 7.00415 177.247 7.88509 176.576 8.78518C175.447 10.2981 174.01 11.3131 172.095 11.6195C169.223 12.0791 167.48 9.89592 164.856 9.85762C160.988 9.80017 158.575 14.3006 158.536 17.8818C158.498 21.2907 160.586 24.3548 161.198 27.6679C161.428 28.7595 159.743 29.2382 159.532 28.1275Z" fill="#3F3C36"/>
<path d="M134.043 115.091C141.512 121.143 152.619 122.082 160.835 116.93C168.802 111.932 172.842 101.973 171.061 92.8382C170.851 91.7275 172.536 91.2679 172.747 92.3786C174.662 102.318 170.372 113.023 161.716 118.462C152.792 124.054 140.88 122.886 132.798 116.355C131.917 115.628 133.162 114.383 134.043 115.091Z" fill="#3F3C36"/>
<path d="M139.558 47.5078C143.407 43.3904 148.961 41.5328 154.266 44.0607C159.494 46.5503 162.232 51.97 162.673 57.5429C162.883 60.1665 158.785 60.1474 158.574 57.5429C157.904 48.9058 149.057 43.3329 142.43 50.3996C140.649 52.3338 137.758 49.4421 139.558 47.5078Z" fill="#3F3C36"/>
<path d="M167.939 28.6252C170.889 28.9508 173.167 31.268 173.436 34.2364C173.531 35.3663 171.789 35.3471 171.674 34.2364C171.501 32.3021 169.874 30.5977 167.939 30.3871C166.829 30.253 166.829 28.4911 167.939 28.6252Z" fill="#3F3C36"/>
<path d="M173.838 42.9886C168.304 39.9244 162.769 36.8603 157.234 33.7962C157.637 33.7004 158.039 33.5855 158.441 33.4898C156.717 36.9752 156.813 41.5331 159.858 44.2525C164.052 47.9869 170.544 46.2059 173.513 41.8012C174.145 40.8628 175.657 41.7438 175.026 42.6822C171.598 47.738 164.512 49.8637 159.398 46.1293C155.09 42.9694 154.668 37.1667 156.909 32.6088C157.119 32.1684 157.713 32.0726 158.115 32.3024C163.65 35.3665 169.185 38.4307 174.719 41.4948C175.715 42.031 174.815 43.5439 173.838 42.9886Z" fill="#3F3C36"/>
<path d="M151.144 30.0808C145.61 27.0167 140.075 23.9525 134.541 20.8884C134.943 20.7926 135.345 20.6777 135.747 20.582C134.024 24.0674 134.119 28.6253 137.164 31.3447C141.358 35.0792 147.85 33.2981 150.819 28.8934C151.451 27.9551 152.964 28.836 152.332 29.7744C148.904 34.8302 141.818 36.9559 136.705 33.2215C132.396 30.0616 131.974 24.2589 134.215 19.7011C134.426 19.2606 135.019 19.1648 135.422 19.3946C140.956 22.4588 146.491 25.5229 152.025 28.587C153.021 29.1041 152.14 30.617 151.144 30.0808Z" fill="#3F3C36"/>
<path d="M156.142 36.2665C153.844 35.0409 151.527 33.7961 149.229 32.5704C148.233 32.0342 149.114 30.5213 150.11 31.0575C152.408 32.2832 154.725 33.528 157.023 34.7536C158.019 35.2899 157.138 36.8028 156.142 36.2665Z" fill="#3F3C36"/>
<path d="M142.871 45.0759C134.712 50.1892 127.78 57.8687 126.899 67.4632C126.746 69.2443 126.88 71.2168 128.086 72.5382C129.772 74.3767 135 74.4916 137.47 74.032C146.586 72.3084 152.542 70.0486 160.719 65.7014C163.669 64.131 167.211 61.1626 169.203 58.4623C171.195 55.7621 172.037 51.9894 170.486 49.021C166.924 53.4448 162.328 57.1409 156.985 59.0752C153.174 60.454 139.807 63.3075 140.017 55.9727C140.094 53.464 141.894 51.0701 143.847 49.4806L142.871 45.0759Z" fill="#3F3C36"/>
<path d="M200.127 83.0211L204.345 85.3304C206.914 87.2392 206.56 87.8754 207.149 91.0331L208.634 100.412C208.681 100.718 209.152 100.718 209.199 100.412L210.66 91.1038C211.25 87.9697 211.179 87.2863 213.724 85.354L217.73 83.0447C217.871 82.9268 217.871 82.6912 217.73 82.5969L213.205 80.429C210.684 78.4967 210.825 77.2242 210.26 74.1136L209.199 65.2298C209.152 64.9234 208.681 64.9234 208.634 65.2298L207.409 74.3964C206.843 77.507 206.537 78.803 204.015 80.7118L200.104 82.5498C199.962 82.6912 199.962 82.9033 200.127 83.0211Z" fill="#FFBD1A"/>
<path d="M94.1562 43.0504L98.3743 45.3597C100.943 47.2685 100.589 47.9047 101.179 51.0624L102.687 60.4176C102.734 60.7239 103.205 60.7239 103.252 60.4176L104.713 51.1095C105.302 47.9754 105.232 47.292 107.777 45.3597L111.783 43.0504C111.924 42.9326 111.924 42.6969 111.783 42.6027L107.258 40.4347C104.737 38.5024 104.878 37.2299 104.313 34.1194L103.276 25.2591C103.229 24.9527 102.757 24.9527 102.71 25.2591L101.485 34.4257C100.919 37.5363 100.589 38.8323 98.0915 40.7411L94.1798 42.5791C94.0149 42.7205 94.0149 42.9561 94.1562 43.0504Z" fill="#FFBD1A"/>
</svg>
