<svg width="172" height="88" viewBox="0 0 172 88" fill="none" xmlns="http://www.w3.org/2000/svg">
<path d="M97.3375 33.7833C66.9734 47.1791 56.5072 34.5001 33.7604 42.3458C25.8508 45.0773 6.78513 51.8962 11.4709 96.1906C12.1532 102.661 7.85724 111.93 5.09074 117.316C2.47419 122.401 -10.2487 167.402 33.7679 178.493C68.218 187.172 102.203 194.514 136.511 178.212C148.477 172.526 162.227 166.657 169.012 152.234C175.174 139.138 172.325 114.381 162.901 103.358C134.756 70.4353 154.729 57.7854 133.047 37.7352C124.568 29.8992 113.022 26.8675 97.3375 33.7833Z" fill="#F5F5F5"/>
<path d="M161.477 86.6692C160.72 82.4073 159.595 78.068 158.62 73.7771C158.425 72.9053 158.215 72.0045 157.788 71.1715C156.918 69.4764 155.396 68.8759 154.272 69.2052C150.771 70.232 149.826 75.1622 151.205 80.0246C152.248 83.7149 154.564 88.2286 157.503 90.5727C158.523 91.3863 159.73 92.0062 160.585 91.6381C161.964 91.057 161.807 88.5289 161.477 86.6692Z" fill="#F5F5F5"/>
<path d="M0.937152 93.0233C1.76935 95.4351 3.11137 98.0213 4.55835 99.9295C6.3427 102.273 9.62652 103.649 9.15419 98.5347C8.77182 94.2825 7.91713 90.2725 7.12242 86.1365C6.82253 84.5674 6.38019 82.9692 5.50301 81.8166C4.61832 80.6639 3.19384 80.0731 2.06924 80.7898C1.3645 81.2451 0.877174 82.1265 0.569785 83.0661C-0.382372 86.0009 -0.0599882 90.1466 0.937152 93.0233Z" fill="#F5F5F5"/>
<path d="M59.8927 98.7053C58.8476 100.535 58.6231 101.194 57.2671 102.109C55.3843 103.381 53.5965 101.818 52.3268 99.598C45.8406 88.2278 40.6154 64.1484 39.6826 64.2265C14.7655 66.5697 12.2867 75.8757 32.3759 127.795C42.5846 154.017 65.9557 142.624 69.9545 136.855C70.3864 136.23 76.7085 136.788 68.9267 131.7C68.4949 131.421 71.8287 129.658 72.131 129.156C74.057 125.898 71.0082 121.959 72.6837 118.489C67.4758 112.921 62.8551 106.371 59.8927 98.7053Z" fill="#CFD9B5"/>
<path d="M83.7389 67.3286C74.2298 75.5411 65.8434 86.2306 57.8285 96.4627C62.0346 103.504 67.2426 110.265 73.3315 114.427C63.7361 132.917 50.9018 175.675 51.7741 192.1C51.9555 195.614 51.6359 199.319 52.8969 202.443C54.1665 205.59 56.438 207.643 58.9772 209.149C60.7477 197.366 63.2179 185.739 66.1285 174.347C75.9226 134.802 83.6698 94.6662 97.8341 57.7772C92.842 60.2209 88.1695 63.5014 83.7389 67.3286Z" fill="#9BB168"/>
<path d="M101.081 56.3152C99.9845 56.7615 98.8963 57.2413 97.834 57.7658C83.6697 94.6659 75.9225 134.791 66.1284 174.335C63.2178 185.728 60.7477 197.355 58.9771 209.138C60.2294 209.885 61.5509 210.488 62.8464 211.024C73.4351 215.375 84.4556 217.328 95.5798 217.852C96.1757 163.534 105.944 109.127 115.177 53.3806C110.478 53.4476 105.702 54.4518 101.081 56.3152Z" fill="white"/>
<path d="M148.747 79C144.619 67.6298 137.787 60.2766 129.798 56.4828C125.204 54.3069 120.229 53.3027 115.159 53.3808C105.926 109.138 96.1668 163.535 95.5622 217.853C104.139 218.254 112.775 217.797 121.317 216.938C122.423 216.826 123.658 216.625 124.366 215.521C125.29 214.081 124.841 211.939 124.435 210.142C121.956 199.163 122.88 187.435 124.064 176.099C125.99 157.621 128.52 139.243 131.655 121.033C131.897 119.638 132.139 118.221 132.294 116.793C133.694 117.685 135.084 118.589 136.475 119.482C141.415 122.684 153.144 114.729 154.672 121.591C155.605 106.349 153.99 93.4387 148.747 79Z" fill="#9BB168"/>
<path d="M40.1749 51.8854C42.6709 49.8769 45.1669 47.8796 47.6543 45.8711C48.0861 45.5252 47.6889 44.6437 47.257 44.9896C44.761 46.9981 42.265 48.9954 39.7776 51.0039C39.3457 51.3498 39.743 52.2425 40.1749 51.8854Z" fill="#3F3C36"/>
<path d="M118.381 99.2633C120.575 94.2421 122.415 88.9643 124.608 83.9431C124.859 83.374 124.176 82.8607 123.926 83.4298C121.732 88.451 119.893 93.7288 117.699 98.75C117.448 99.3191 118.131 99.8323 118.381 99.2633Z" fill="#3F3C36"/>
<path d="M112.051 102.454C112.051 102.454 106.532 94.8223 103.474 92.0997C98.2317 87.4467 97.7481 84.6571 95.1916 80.5621C94.5179 79.4909 93.1619 80.1604 93.1274 81.5886C93.0583 84.6683 94.1983 88.5737 95.3816 90.7495C96.4871 92.7803 95.0447 95.6591 93.1965 95.1012C86.3389 93.0258 78.0476 90.3255 72.6755 90.1693C71.2159 90.1247 69.048 91.3297 69.5144 93.2043C69.6785 93.8515 70.1363 94.2197 70.5767 94.521C74.7051 97.3886 81.0877 99.5199 86.0366 100.691C83.7824 101.283 78.4189 99.4306 77.443 103.202C76.6139 106.416 78.6262 109.227 80.9668 109.227C79.4726 108.625 72.0364 116.168 94.1724 124.012L112.051 102.454Z" fill="#CFD9B5"/>
<path d="M112.335 102.086C109.528 98.2145 106.609 94.3537 103.258 91.2741C100.762 88.9755 98.8619 86.3198 97.1259 83.0951C96.3486 81.6557 94.7076 77.8396 93.1098 80.2721C92.3497 81.4214 92.7643 83.4745 92.9975 84.8023C93.3516 86.8889 94.0166 88.8081 94.8458 90.6381C95.2776 91.5865 95.5799 92.3899 95.1221 93.4611C94.5176 94.8559 93.4725 94.6438 92.4447 94.3314C90.536 93.7512 88.6273 93.1598 86.7186 92.6019C83.3934 91.62 80.0596 90.6827 76.6826 90.0913C74.5666 89.7231 71.0342 88.6854 69.4623 91.2964C67.4931 94.5546 72.8997 96.5184 74.4198 97.2437C78.1422 99.0179 82.0374 100.234 85.9326 101.171C85.9326 100.848 85.9326 100.513 85.9326 100.189C83.4107 100.747 79.6709 98.9955 77.6586 101.752C75.2576 105.032 78.1336 109.562 80.9665 109.73C81.4156 109.752 81.4933 108.871 81.0701 108.725C79.8437 108.301 78.5395 110.098 78.2632 111.47C77.529 115.008 80.9233 117.741 82.8752 119.114C86.3645 121.58 90.251 123.131 94.0685 124.492C94.5608 124.671 94.768 123.677 94.2757 123.51C90.4842 122.149 86.6063 120.631 83.1516 118.154C81.6833 117.094 79.8523 115.688 79.1614 113.579C78.7209 112.24 79.4896 109.239 80.8542 109.719C80.8887 109.384 80.9233 109.049 80.9578 108.714C77.4858 108.502 76.2681 102.254 80.0596 101.406C82.072 100.959 84.1275 101.629 86.1313 101.183C86.5113 101.093 86.5026 100.29 86.1313 100.201C83.0652 99.4642 80.0251 98.5381 77.0454 97.333C75.5512 96.7304 74.0657 96.0498 72.632 95.2464C72.0274 94.9005 71.3019 94.5769 70.7578 94.0748C69.255 92.68 70.2223 91.3299 71.5092 90.8724C72.6665 90.4595 73.9534 90.7273 75.128 90.8835C76.7863 91.1067 78.4359 91.4526 80.0855 91.8543C83.2811 92.6242 86.4595 93.5727 89.6205 94.5323C91.5292 95.1125 94.5176 96.9313 95.7958 93.9855C96.2017 93.0594 96.2449 91.9547 95.9167 90.9728C95.3208 89.2098 94.4744 87.7481 94.0253 85.8512C93.7748 84.7912 93.5675 83.6865 93.5243 82.5818C93.5157 82.2917 93.438 81.5999 93.5416 81.321C94.2326 79.4018 95.1308 81.2875 95.4244 81.7896C96.0463 82.8608 96.6163 83.9878 97.2209 85.0701C98.5855 87.5361 100.201 89.6227 102.075 91.4303C105.59 94.8447 108.751 98.6496 111.757 102.812C112.119 103.291 112.681 102.566 112.335 102.086Z" fill="#3F3C36"/>
<path d="M94.8457 81.2987C94.4916 83.6642 95.8476 86.1413 97.7908 86.0855C98.3004 86.0744 98.3004 85.0478 97.7908 85.0701C96.3917 85.1148 95.3466 83.3071 95.6057 81.5665C95.7007 80.9305 94.9407 80.6515 94.8457 81.2987Z" fill="#3F3C36"/>
<path d="M34.958 65.4762C35.2602 66.4023 35.4675 67.3954 35.5625 68.3885C35.623 69.0357 36.4176 69.0357 36.3485 68.3885C36.2362 67.1946 36.003 66.0676 35.6403 64.9518C35.4416 64.3492 34.7593 64.8737 34.958 65.4762Z" fill="white"/>
<path d="M73.0897 7.9L71.656 8.90424C70.7837 9.7411 70.9046 10.0201 70.706 11.3925L70.205 15.4987C70.1878 15.6326 70.0323 15.6326 70.015 15.4987L69.5227 11.4148C69.3241 10.0424 69.35 9.74111 68.4863 8.89308L67.1304 7.88884C67.0785 7.84421 67.0785 7.74379 67.1304 7.688L68.6591 6.73955C69.5141 5.90269 69.4623 5.34478 69.6609 3.97232L70.015 0.100424C70.0323 -0.0334746 70.1878 -0.0334746 70.205 0.100424L70.6196 4.11737C70.8096 5.47867 70.9219 6.04774 71.7683 6.88461L73.0984 7.688C73.1416 7.75495 73.1416 7.85537 73.0897 7.9Z" fill="white"/>
<path d="M62.095 14.6954L60.9981 15.4654C60.3331 16.1014 60.4194 16.3134 60.2726 17.3734L59.8926 20.5089C59.8753 20.6093 59.7631 20.6093 59.7458 20.5089L59.3658 17.3957C59.2189 16.3469 59.2276 16.1125 58.5712 15.4765L57.5348 14.7066C57.4916 14.6731 57.4916 14.595 57.5348 14.5504L58.7094 13.8251C59.3658 13.1779 59.3226 12.7539 59.478 11.7162L59.7458 8.75928C59.7631 8.65885 59.8753 8.65885 59.8926 8.75928L60.2122 11.8278C60.359 12.8655 60.4367 13.3007 61.0845 13.9478L62.1036 14.5615C62.1382 14.5727 62.1382 14.6508 62.095 14.6954Z" fill="white"/>
<path d="M101.012 29.6472C99.8291 28.3194 99.7168 26.0542 99.9413 24.0569C100.157 22.0596 100.624 20.0177 100.278 18.065C99.9327 16.1235 98.3781 14.3381 96.7976 14.963C96.4262 15.1081 96.0807 15.3759 95.692 15.454C94.2065 15.7552 93.5415 13.4232 92.5828 12.0619C91.4773 10.4997 89.3958 10.1427 87.9103 11.2585C86.4161 12.3743 85.6907 14.8403 86.2693 16.7929C86.6321 18.0092 87.3057 19.6494 86.3816 20.3413C86.1052 20.5533 85.777 20.5644 85.4575 20.5867C84.4815 20.6537 83.471 20.8545 82.6332 21.5017C81.7868 22.1489 81.1477 23.3093 81.2341 24.5033C81.355 26.1324 82.6851 27.092 83.8424 27.8842C84.9997 28.6764 86.2607 29.8703 86.1225 31.5106C86.0275 32.5595 85.3625 33.4521 85.2156 34.4898C84.9565 36.3086 86.3125 37.7815 87.6426 38.5514C89.1713 39.4329 90.8555 39.935 92.5655 40.002C93.5242 40.0466 94.5174 39.9462 95.4243 40.2921C96.3312 40.638 97.1689 41.5753 97.1603 42.7581L101.012 29.6472Z" fill="#3F3C36"/>
<path d="M106.341 45.2686L113.276 44.6661C111.532 33.9208 103.655 28.1073 98.5594 25.4071C95.9857 24.0458 94.1115 23.4767 94.1115 23.4767L94.8802 34.7911L97.0048 66.0117C97.4366 72.305 101.919 76.7013 106.747 75.6747C106.825 75.6636 106.903 75.6413 106.98 75.6301C112.801 74.3692 115.833 65.9559 112.819 59.3949C109.623 52.3876 106.341 45.2686 106.341 45.2686Z" fill="#CFD9B5"/>
<path d="M91.0455 43.1265C92.7469 44.4431 94.9407 43.729 95.9598 41.5308C96.979 39.3327 96.4262 36.4985 94.7248 35.1818C93.0233 33.8652 90.8296 34.5793 89.8104 36.7774C88.7999 38.9756 89.3441 41.8209 91.0455 43.1265Z" fill="#CFD9B5"/>
<path d="M94.647 39.0203C93.3601 38.6743 92.0732 38.3284 90.7863 38.0049C90.2854 37.8821 90.0781 38.864 90.579 38.9868C91.8659 39.3104 93.1528 39.6563 94.4397 40.0022C94.932 40.1472 95.1479 39.1542 94.647 39.0203Z" fill="#3F3C36"/>
<path d="M106.35 45.2686L112.913 59.7408L101.211 45.2574L106.35 45.2686Z" fill="#3F3C36"/>
<path d="M101.979 28.3751C104.095 29.4128 106.255 30.696 108.181 32.2358C108.181 31.9457 108.181 31.6444 108.181 31.3543C107.343 31.8453 106.514 32.3251 105.676 32.816C105.21 33.0838 105.616 33.9653 106.073 33.6975C106.911 33.2066 107.74 32.7268 108.578 32.2358C108.863 32.0684 108.811 31.5328 108.578 31.3543C106.592 29.7699 104.372 28.4532 102.187 27.3932C101.712 27.1588 101.504 28.1408 101.979 28.3751Z" fill="#3F3C36"/>
<path d="M106.894 34.4788L107.412 36.0186C105.4 37.67 103.129 38.7412 100.779 39.2433C100.365 38.9197 99.9675 38.5627 99.5961 38.161C102.204 37.7035 104.735 36.4314 106.894 34.4788Z" fill="white"/>
<path d="M107.084 40.9059C105.754 41.129 104.389 40.9951 103.102 40.5153C103.482 40.2475 103.88 40.0244 104.311 39.8793C105.313 39.6004 106.393 39.9686 107.084 40.9059Z" fill="#ED7E1C"/>
<path d="M107.404 36.0076L108.863 40.3704C108.285 40.6271 107.68 40.7944 107.075 40.8949C106.393 39.9576 105.305 39.6005 104.303 39.8683C103.871 40.0245 103.474 40.2365 103.094 40.5043C102.282 40.203 101.496 39.779 100.771 39.2211C103.128 38.7413 105.4 37.6701 107.404 36.0076Z" fill="#3F3C36"/>
<path d="M100.848 31.12C99.1297 30.6179 97.4368 31.4436 96.3659 33.2401C96.055 33.7645 96.7459 34.2666 97.0482 33.7534C97.8946 32.3363 99.2938 31.7114 100.632 32.1019C101.133 32.2582 101.341 31.2651 100.848 31.12Z" fill="#3F3C36"/>
<path d="M99.0083 32.2136C99.0688 32.6487 98.8183 33.1174 98.4815 33.1955C98.1447 33.2736 97.7819 32.9612 97.7128 32.5371C97.9806 32.8607 98.5074 32.6153 98.542 32.1466C98.2915 32.1131 98.0324 32.2582 97.8769 32.5148L99.0083 32.2136Z" fill="#3F3C36"/>
<path d="M98.6201 32.2137C98.6633 32.6824 98.2055 32.8944 98.1019 32.3922C97.886 32.5596 97.6614 32.727 97.4455 32.8944C97.9464 33.4188 98.8101 33.1733 98.931 32.2807C98.9742 31.9459 98.8274 31.6446 98.551 31.6335C98.1883 31.6112 97.8428 31.8009 97.6096 32.1468C97.2728 32.6377 97.8255 33.363 98.171 32.872C98.2833 32.7047 98.3869 32.6489 98.5596 32.6489C98.4301 32.4369 98.3092 32.2137 98.1796 32.0017C98.171 32.0687 98.0846 32.2472 98.0069 32.1691C97.7132 31.8566 97.2382 32.1356 97.3505 32.6712C97.4887 33.3407 98.0069 33.8205 98.551 33.6978C99.0778 33.5862 99.4751 32.9055 99.4147 32.2137C99.3888 31.9348 99.2506 31.7004 99.0174 31.7004C98.8187 31.7004 98.5942 31.9348 98.6201 32.2137Z" fill="#3F3C36"/>
<path d="M99.3283 32.8052C98.5769 32.7829 97.886 33.1399 97.3419 33.7983C96.9705 34.2446 97.5319 34.9699 97.9033 34.5235C98.3006 34.0437 98.7929 33.8206 99.337 33.8317C99.8379 33.8429 99.8379 32.8163 99.3283 32.8052Z" fill="#3F3C36"/>
<path d="M83.6953 26.9693C85.0253 27.4937 85.6644 29.5692 84.628 30.9751C84.2394 31.4995 83.6348 31.6781 83.2807 32.2583C82.7539 33.1286 82.8489 34.3337 83.1771 35.2821C84.1962 38.2614 86.9772 38.6966 89.1796 38.8974C89.6892 38.942 89.6892 37.9266 89.1796 37.882C87.5127 37.7369 85.6299 37.5584 84.4208 35.8847C83.6521 34.8135 83.4793 33.4522 84.4035 32.4256C84.7835 32.0016 85.1376 31.8566 85.4572 31.2875C86.6059 29.2344 85.6645 26.6792 83.9112 25.9874C83.4189 25.7865 83.203 26.7796 83.6953 26.9693Z" fill="#3F3C36"/>
<path d="M85.8031 23.6215C87.4095 23.1194 87.28 20.8208 86.5804 19.3591C85.8549 17.8304 84.663 16.3575 84.9567 14.3714C85.3194 11.8943 87.6341 11.3698 88.921 12.9543C89.2924 13.4118 89.8451 12.6865 89.4824 12.229C88.0659 10.4883 85.7772 10.5441 84.6458 12.7423C84.0757 13.8469 84.0066 15.1748 84.3176 16.4245C84.6199 17.663 87.5477 22.0371 85.5872 22.6396C85.1035 22.7847 85.3108 23.7666 85.8031 23.6215Z" fill="#3F3C36"/>
<path d="M100.33 25.1282C100.598 23.2536 101.444 21.5576 101.548 19.6384C101.634 18.0986 101.246 16.5253 100.529 15.2979C99.9328 14.2825 98.9568 13.1443 97.9118 13.1443C97.3072 13.1443 96.9444 13.5349 96.4522 13.9254C95.3812 14.7623 94.1461 14.7734 93.3256 13.3452C93.0234 12.8207 92.341 13.334 92.6433 13.8584C93.1529 14.7399 93.8007 15.3313 94.6643 15.5099C95.9599 15.7777 96.7458 14.5056 97.929 14.4833C99.6737 14.4498 100.762 17.072 100.779 19.1586C100.796 21.1447 99.855 22.9301 99.5787 24.8604C99.475 25.4964 100.235 25.7754 100.33 25.1282Z" fill="#3F3C36"/>
<path d="M111.826 75.7977C108.457 79.3237 103.448 79.8704 99.7427 76.8689C96.1498 73.9566 94.3274 68.1543 95.1306 62.8319C95.2256 62.1847 94.4656 61.9169 94.3706 62.5641C93.5069 68.3552 95.4416 74.5926 99.3454 77.7615C103.37 81.0197 108.742 80.3391 112.387 76.5341C112.784 76.1101 112.223 75.3849 111.826 75.7977Z" fill="#3F3C36"/>
<path d="M109.338 36.4201C107.602 34.0211 105.098 32.9387 102.705 34.4116C100.348 35.8622 99.1125 39.0199 98.9138 42.267C98.8188 43.7956 100.667 43.7845 100.762 42.267C101.064 37.2346 105.055 33.9876 108.043 38.105C108.846 39.2319 110.15 37.5471 109.338 36.4201Z" fill="#3F3C36"/>
<path d="M96.5386 25.4182C95.2086 25.6079 94.1808 26.958 94.0599 28.6875C94.0167 29.3459 94.8026 29.3347 94.8545 28.6875C94.9322 27.5606 95.6663 26.5675 96.5386 26.4447C97.0396 26.3666 97.0396 25.3401 96.5386 25.4182Z" fill="#3F3C36"/>
<path d="M59.2621 30.5956L33.4468 11.3366C31.6158 9.97527 29.327 11.6825 29.327 14.4051V52.9232C29.327 55.6569 31.6158 57.3641 33.4468 55.9917L59.2621 36.7326C61.0931 35.3713 61.0931 31.9681 59.2621 30.5956Z" fill="#ED7E1C"/>
<path d="M45.8322 88.2279C45.8322 88.2279 42.0061 76.4783 39.2423 58.5248C40.4515 59.3282 42.1097 60.4105 43.2843 61.3366C44.4589 62.2628 46.1258 62.4078 46.4454 60.9684C46.6181 60.1762 46.4281 59.1273 45.9445 58.3574C44.0789 55.3559 40.0024 51.1492 36.7463 51.7294C36.7808 51.0823 36.1676 50.5132 35.6581 50.2677C33.8012 49.3639 29.4482 49.018 28.0232 50.1338C26.6067 51.2496 25.8812 52.5105 25.8812 54.9653C25.0607 49.3751 28.8177 45.1349 31.0374 41.1626C31.4433 40.4373 31.8406 39.5558 31.5642 38.5405C31.141 36.9895 29.7419 37.1345 28.7227 37.592C22.2797 40.4931 19.0582 53.2693 18.3759 61.0689C17.6849 68.9689 16.6399 81.6334 23.057 101.618C24.8103 107.074 29.4482 91.4526 34.9067 92.7693C36.9968 93.2491 45.124 93.3718 45.8322 88.2279Z" fill="#CFD9B5"/>
<path d="M37.1519 50.7138C33.0148 48.5938 34.6558 60.0086 35.1481 62.084C35.295 62.7089 36.0636 62.4411 35.9082 61.8162C35.6059 60.5442 33.9994 50.2005 36.9359 51.7069C37.411 51.9412 37.6183 50.9593 37.1519 50.7138Z" fill="#3F3C36"/>
<path d="M32.1514 49.6315C28.7658 51.2829 29.5258 57.1633 29.6554 60.8678C29.6813 61.5261 30.4672 61.5261 30.4413 60.8678C30.329 57.7881 29.5344 51.9859 32.35 50.6134C32.8337 50.3902 32.635 49.3972 32.1514 49.6315Z" fill="#3F3C36"/>
<path d="M26.27 50.7253C24.6981 53.459 24.7759 58.1678 25.2423 61.359C25.3373 62.0062 26.0973 61.7272 26.0023 61.0912C25.5618 58.1343 25.5014 53.7603 26.9437 51.2497C27.2546 50.7141 26.5723 50.2008 26.27 50.7253Z" fill="#3F3C36"/>
<path d="M28.8264 37.4804C28.7487 38.8529 27.7381 39.5112 26.7795 39.2099C26.2872 39.0537 26.0713 40.0356 26.5722 40.1919C28.0577 40.6605 29.5087 39.5224 29.621 37.4804C29.6555 36.8221 28.8696 36.8332 28.8264 37.4804Z" fill="#3F3C36"/>
<path d="M23.0568 61.9393C22.3572 61.8277 21.6576 61.705 20.9667 61.5934C20.4657 61.5153 20.4657 62.5307 20.9667 62.6199C21.6663 62.7315 22.3658 62.8543 23.0568 62.9658C23.5577 63.044 23.5577 62.0174 23.0568 61.9393Z" fill="white"/>
<path d="M30.6745 63.7356C29.759 63.4231 28.8349 63.3785 27.928 63.7133C27.4357 63.8918 27.643 64.8737 28.1353 64.6952C28.9126 64.4051 29.6813 64.4497 30.4673 64.7175C30.9595 64.8849 31.1668 63.9029 30.6745 63.7356Z" fill="white"/>
<path d="M36.1587 64.7511C35.4764 64.3494 34.7941 64.182 34.0513 64.3159C33.5504 64.4052 33.7663 65.3871 34.2586 65.2978C34.7682 65.2086 35.295 65.3536 35.7614 65.6326C36.2191 65.9004 36.6251 65.0189 36.1587 64.7511Z" fill="white"/>
<path d="M93.8783 33.787C96.3744 32.0017 98.8704 30.2164 101.366 28.4311C101.185 28.3753 101.004 28.3084 100.822 28.2526C101.6 30.2834 101.556 32.939 100.183 34.5235C98.2917 36.6993 95.3639 35.6616 94.0252 33.0952C93.7402 32.5485 93.0579 33.0618 93.3429 33.6085C94.8889 36.5543 98.0845 37.7928 100.39 35.617C102.334 33.7759 102.524 30.3949 101.513 27.7393C101.418 27.4827 101.151 27.4269 100.969 27.5608C98.4731 29.3461 95.9771 31.1314 93.4811 32.9167C93.0319 33.2291 93.4379 34.1106 93.8783 33.787Z" fill="#3F3C36"/>
<path d="M104.113 26.2663C106.609 24.481 109.105 22.6957 111.601 20.9103C111.42 20.8546 111.238 20.7876 111.057 20.7318C111.834 22.7626 111.791 25.4183 110.418 27.0027C108.526 29.1786 105.599 28.1409 104.26 25.5745C103.975 25.0277 103.292 25.541 103.577 26.0878C105.123 29.0335 108.319 30.2721 110.625 28.0962C112.568 26.2551 112.758 22.8742 111.748 20.2185C111.653 19.9619 111.385 19.9061 111.204 20.04C108.708 21.8253 106.212 23.6106 103.716 25.3959C103.267 25.6972 103.664 26.5787 104.113 26.2663Z" fill="#3F3C36"/>
<path d="M101.859 29.8704C102.895 29.1563 103.94 28.431 104.977 27.7169C105.426 27.4045 105.029 26.523 104.58 26.8354C103.543 27.5495 102.498 28.2748 101.462 28.9889C101.013 29.3014 101.41 30.1829 101.859 29.8704Z" fill="#3F3C36"/>
<path d="M107.844 35.0032C111.524 37.9824 114.65 42.4568 115.047 48.0471C115.116 49.0848 115.056 50.2341 114.512 51.004C113.752 52.0752 111.394 52.1422 110.28 51.8744C106.169 50.8701 103.483 49.5535 99.7948 47.0205C98.4647 46.1056 96.8669 44.3761 95.9687 42.8028C95.0705 41.2294 94.6904 39.0313 95.39 37.3018C96.9965 39.8793 99.0693 42.0328 101.479 43.1598C103.198 43.9632 109.226 45.6258 109.131 41.3522C109.097 39.8905 108.285 38.4957 107.404 37.5696L107.844 35.0032Z" fill="#3F3C36"/>
<path d="M40.3649 51.7181C42.9213 49.9663 45.4692 48.2145 48.0257 46.4626C48.4748 46.1502 48.0775 45.2687 47.6284 45.5811C45.0719 47.333 42.524 49.0848 39.9676 50.8366C39.5184 51.1379 39.9157 52.0194 40.3649 51.7181Z" fill="#3F3C36"/>
<path d="M51.7137 43.4834C53.6657 41.6312 55.7298 40.0244 57.9149 38.6519C58.3727 38.3618 57.9754 37.4803 57.5177 37.7705C55.3412 39.1429 53.277 40.7497 51.3165 42.602C50.9105 42.9925 51.2992 43.874 51.7137 43.4834Z" fill="#3F3C36"/>
<path d="M82.0225 57.1119L80.1202 58.4574C78.9618 59.5696 79.1212 59.9403 78.8555 61.7801L78.186 67.2446C78.1647 67.4231 77.9522 67.4231 77.9309 67.2446L77.272 61.8213C77.0063 59.9952 77.0382 59.597 75.8905 58.4712L74.0838 57.1256C74.02 57.057 74.02 56.9197 74.0838 56.8648L76.1243 55.6016C77.2614 54.4758 77.1976 53.7343 77.4527 51.922L77.9309 46.7458C77.9522 46.5673 78.1647 46.5673 78.186 46.7458L78.7386 52.0867C78.9937 53.8991 79.1318 54.6542 80.2689 55.7664L82.0331 56.8373C82.0968 56.9197 82.0968 57.0433 82.0225 57.1119Z" fill="#FFBD1A"/>
<path d="M129.814 33.823L127.912 35.1685C126.753 36.2806 126.913 36.6513 126.647 38.4911L125.967 43.9419C125.946 44.1204 125.733 44.1204 125.712 43.9419L125.053 38.5186C124.787 36.6925 124.819 36.2944 123.671 35.1685L121.865 33.823C121.801 33.7543 121.801 33.617 121.865 33.5621L123.905 32.2989C125.042 31.1731 124.979 30.4317 125.234 28.6193L125.701 23.4569C125.722 23.2784 125.935 23.2784 125.956 23.4569L126.509 28.7978C126.764 30.6102 126.913 31.3653 128.039 32.4774L129.803 33.5484C129.878 33.6307 129.878 33.768 129.814 33.823Z" fill="#FFBD1A"/>
</svg>
