<svg width="286" height="286" viewBox="0 0 286 286" fill="none" xmlns="http://www.w3.org/2000/svg">
<rect width="286" height="286" rx="143" fill="white"/>
<path d="M87.3231 74.8635C85.3397 78.5216 81.0137 80.1968 76.9443 81.0002C72.8748 81.8036 68.5659 82.0942 64.941 84.1455C62 85.8207 59.7259 88.6412 58.7171 91.8548C58.529 92.4702 58.3751 93.1368 58.5632 93.7351C59.1617 95.6838 62.1026 95.3078 63.7612 96.4702C65.5053 97.7009 65.3685 100.504 64.0861 102.231C62.8037 103.94 60.7518 104.88 58.8539 105.855C56.9559 106.846 54.9896 108.094 54.186 110.077C53.2284 112.453 54.2885 115.325 56.2549 116.983C58.2212 118.624 60.9057 119.222 63.4705 119.188C65.1804 119.171 66.9245 118.897 68.4633 118.128C71.5582 116.555 73.251 113.239 75.2686 110.419C77.2691 107.598 80.3811 104.88 83.7837 105.513C84.1086 105.581 84.4506 105.684 84.6045 105.974C84.7925 106.333 84.5874 106.778 84.5532 107.188C84.4848 108.162 85.5107 108.966 86.4853 108.966C87.477 108.966 88.3491 108.368 89.0672 107.684C91.0677 105.752 92.145 102.897 91.9227 100.128C91.7175 97.6325 90.9481 94.2992 93.2393 93.2907C93.8548 93.0172 94.573 93.0343 95.2398 92.9488C99.6513 92.4018 102.404 86.5728 100.027 82.8121C98.5057 80.4019 95.6673 79.2395 93.017 78.231L87.3231 74.8635Z" fill="#4F3422"/>
<path d="M90.3154 95.9061C89.8024 97.171 89.5801 98.436 89.8195 99.8035C90.1786 101.889 91.1019 102.709 89.5459 104.932C87.0837 108.47 83.151 108.573 79.2867 108.658C74.0545 108.761 71.4726 112.573 71.5239 117.581C71.5581 121.154 73.5074 126.521 78.0727 125.239C79.3722 124.88 80.7401 123.803 80.8427 122.367C80.9795 120.265 78.0898 119.513 76.4484 119.393C75.4395 119.325 75.4566 120.88 76.4484 120.949C79.338 121.171 79.509 123.974 76.739 123.837C75.4908 123.786 74.5675 122.863 74.0203 121.838C73.1141 120.162 72.9602 118.026 73.1483 116.162C73.4048 113.769 74.4478 111.256 76.9271 110.47C79.0473 109.786 81.4412 110.436 83.6127 110.094C86.4511 109.65 89.1356 108.111 90.8625 105.803C91.632 104.761 92.2988 103.598 92.162 102.248C91.9397 99.9744 90.8283 98.6753 91.82 96.2992C92.1962 95.3933 90.6915 94.983 90.3154 95.9061Z" fill="#4F3422"/>
<path d="M83.7326 79.3763C74.79 79.5814 66.0526 82.4874 58.8883 87.872C56.6142 89.5814 53.3654 91.9745 55.4515 95.0685C55.896 95.7181 56.5287 96.2309 57.1271 96.7266C57.5717 97.0856 58.2385 97.3762 58.5121 97.889C58.8541 98.5727 58.324 100.983 57.6572 101.427C56.8706 101.94 55.4002 102.077 54.4939 102.333C53.9981 102.47 53.3654 102.778 52.8525 102.795C52.2027 103.086 51.6214 102.846 51.1084 102.111C49.5524 101.667 49.3472 101.291 50.4928 100.983C51.3991 100.539 50.6125 99.1881 49.7063 99.6326C48.2358 100.351 47.1586 101.086 48.0306 102.88C48.7659 104.385 50.4245 104.761 51.9804 104.573C54.2545 104.282 57.4178 103.53 59.4354 102.385C60.8546 101.581 61.4702 100.145 60.8717 98.5898C60.564 97.7864 59.9655 97.1027 59.367 96.5215C59.008 96.1796 58.5463 95.8719 58.1701 95.5471C57.8111 95.2736 57.4691 94.983 57.1442 94.6582C57.1784 93.53 57.2126 92.3848 57.2468 91.2566C57.9479 89.9403 60.1878 88.8292 61.4189 87.9916C62.5816 87.2053 63.7956 86.4703 65.0438 85.8036C70.8231 82.7096 77.218 81.0857 83.7497 80.9489C84.7414 80.9147 84.7414 79.3592 83.7326 79.3763Z" fill="#4F3422"/>
<path d="M193.301 36.2483C191.386 33.9748 188.12 33.1885 185.298 33.9577C182.118 34.8295 179.605 37.7697 179.895 41.1543C180.118 43.8209 184.29 43.7525 184.067 41.0688C183.896 39.0004 185.914 37.5816 187.983 37.838C190.274 38.1286 191.334 40.3167 191.027 42.2483C190.616 44.7611 188.291 45.8038 185.897 45.8551C184.324 45.8893 182.665 46.0944 181.537 47.3081C180.237 48.7098 179.895 51.0687 179.485 52.8636C178.886 55.4789 182.922 56.5046 183.52 53.8892C183.725 53.0003 183.948 52.1285 184.187 51.2568C184.324 50.761 184.375 50.2482 184.785 50.0944C185.281 49.9234 185.897 50.026 186.41 50.0089C187.196 49.9918 188 49.9063 188.769 49.7012C191.642 48.9662 194.07 46.744 194.908 43.8893C195.694 41.291 195.062 38.3338 193.301 36.2483Z" fill="#C2B1FF"/>
<path d="M181.007 57.4105C178.391 56.761 177.365 60.8122 179.981 61.4447C182.58 62.0943 183.606 58.0601 181.007 57.4105Z" fill="#C2B1FF"/>
<path d="M22.4337 162.316C19.4756 162.008 16.5859 163.718 15.0813 166.213C13.3885 169.051 13.6279 172.897 16.1927 175.153C18.1932 176.914 21.1513 173.974 19.1336 172.196C17.5777 170.829 18.0393 168.401 19.715 167.153C21.5787 165.769 23.8529 166.606 24.9643 168.213C26.4006 170.299 25.4772 172.675 23.7845 174.367C22.6731 175.478 21.63 176.777 21.6642 178.435C21.6984 180.35 23.1005 182.282 24.0409 183.854C25.4259 186.145 29.0509 184.093 27.6659 181.786C27.2042 181.017 26.7425 180.23 26.3151 179.427C26.0757 178.965 25.7337 178.572 25.9389 178.179C26.1783 177.717 26.6912 177.358 27.0503 176.982C27.5975 176.418 28.1275 175.803 28.5379 175.136C30.0939 172.623 30.2991 169.341 28.9141 166.692C27.6488 164.299 25.1353 162.589 22.4337 162.316Z" fill="#C2B1FF"/>
<path d="M28.2644 186.077C25.939 187.427 28.0079 191.051 30.3333 189.7C32.6587 188.35 30.5898 184.743 28.2644 186.077Z" fill="#C2B1FF"/>
<path d="M269.253 87.9403C266.773 86.2993 263.422 86.4361 260.925 87.9745C258.104 89.701 256.531 93.2224 257.728 96.3847C258.686 98.8804 262.67 97.6668 261.712 95.1369C260.977 93.2053 262.516 91.2737 264.585 90.9489C266.876 90.5899 268.5 92.4019 268.74 94.3335C269.047 96.8634 267.098 98.5044 264.824 99.2223C263.319 99.6839 261.798 100.351 261.045 101.838C260.173 103.547 260.515 105.906 260.618 107.752C260.772 110.436 264.944 110.299 264.79 107.615C264.738 106.709 264.704 105.803 264.704 104.898C264.704 104.385 264.602 103.872 264.961 103.615C265.388 103.325 266.004 103.239 266.5 103.086C267.252 102.846 268.004 102.539 268.688 102.145C271.253 100.641 272.946 97.8377 272.963 94.8634C272.929 92.1284 271.51 89.4446 269.253 87.9403Z" fill="#C2B1FF"/>
<path d="M263.319 111.684C260.635 111.786 260.772 115.957 263.456 115.855C266.141 115.752 266.004 111.581 263.319 111.684Z" fill="#C2B1FF"/>
<path d="M89.4092 269.512C75.0292 284.195 49.1589 280.144 38.3868 261.392C29.3074 245.597 32.6245 223.512 38.1645 206.982C46.218 182.965 61.5726 161.735 77.6795 141.94C93.1196 122.932 106.747 111.496 128.497 98.983C150.486 86.3335 173.141 78.966 198.567 83.8891C231.79 90.3164 245.486 118.897 259.353 147.171C273.305 175.649 277.272 210.076 267.868 240.709C263.046 256.418 252.872 266.76 237.979 275.084C224.967 282.349 208.296 282.213 194.634 276.469C180.955 270.708 163.036 265.922 157.376 235.837L89.4092 269.512Z" fill="#E1E1E0"/>
<path d="M168.712 266.093C174.03 270.076 180.322 272.503 186.17 275.563C190.804 277.99 195.899 279.58 200.995 280.64C211.955 282.913 224.608 283.153 234.491 277.17C235.346 276.64 234.559 275.29 233.704 275.819C223.804 281.819 210.912 281.341 200.003 278.828C195.13 277.7 190.394 276.076 185.999 273.683C180.476 270.674 174.577 268.537 169.516 264.743C168.695 264.127 167.909 265.495 168.712 266.093Z" fill="#4F3422"/>
<path d="M212.194 239.427C200.225 260.691 180.938 272.537 169.106 265.888C157.274 259.238 157.376 236.606 169.345 215.341C181.314 194.076 200.602 182.23 212.434 188.88C224.249 195.529 224.146 218.162 212.194 239.427Z" fill="#4F3422"/>
<path d="M105.687 249.632C93.7178 270.896 74.4305 282.742 62.5983 276.093C50.766 269.443 50.8686 246.811 62.8376 225.546C74.8067 204.281 94.094 192.435 105.926 199.085C117.741 205.734 117.639 228.367 105.687 249.632Z" fill="#4F3422"/>
<path d="M197.934 218.606C196.583 218.982 195.814 217.102 197.028 216.435C198.002 215.888 198.977 215.324 199.917 214.743C199.148 212.521 198.259 210.333 197.267 208.196C196.361 208.487 195.318 208.726 194.224 208.914C191.454 209.375 190.086 205.683 192.497 204.264C193.163 203.871 193.882 203.444 194.617 203.017C193.027 200.179 191.248 197.461 189.299 194.846L186.273 197.119C187.367 196.299 188.359 195.529 189.248 194.777C187.452 192.401 185.52 190.111 183.468 187.974C179.69 190.162 175.364 191.666 171.14 192.179C168.61 192.487 167.584 189.085 169.858 187.923C172.782 186.435 176.236 185.324 179.382 184.059C177.125 182.059 174.731 180.213 172.235 178.538C145.338 187.171 133.626 199.666 92.7601 202.572C73.4216 203.94 57.0752 241.546 64.3251 257.768C66.8044 263.307 71.3526 266.196 76.9952 267.631C89.5798 270.862 103.002 269.614 115.518 266.144C128.052 262.674 139.85 257.05 151.597 251.444C162.061 246.452 172.542 241.461 183.007 236.469C189.932 233.17 197.113 229.632 202.533 224.384C202.089 222.076 201.508 219.786 200.824 217.546C199.746 218.008 198.755 218.367 197.934 218.606Z" fill="#ED7E1C"/>
<path d="M177.211 105.615L130.72 71.4106C125.949 75.2396 121.161 79.0516 116.288 82.7267C116.733 95.3249 119.794 110.607 130.566 119.581L138.294 107.154C138.294 107.154 145.305 118.675 152.213 130.008C158.676 140.607 173.774 141.41 181.332 131.547C181.434 131.41 181.537 131.291 181.622 131.154C187.863 122.983 185.863 111.222 177.211 105.615Z" fill="#ED7E1C"/>
<path d="M150.315 77.1028C150.537 81.2566 147.339 84.8122 143.167 85.0173C139.012 85.2395 135.456 82.043 135.251 77.872C135.028 73.7182 138.226 70.1627 142.398 69.9576C146.553 69.7354 150.092 72.9319 150.315 77.1028Z" fill="#ED7E1C"/>
<path d="M142.415 81.0344C143.185 78.3848 143.954 75.7182 144.775 73.0857C145.065 72.1285 143.561 71.7011 143.27 72.6755C142.449 75.325 141.68 77.9746 140.911 80.6241C140.62 81.5985 142.142 82.0087 142.415 81.0344Z" fill="#4F3422"/>
<path d="M138.277 107.171L152.606 130.419L143.338 97.6155L138.277 107.171Z" fill="#4F3422"/>
<path d="M116.699 85.9575C116.083 90.7609 115.793 95.8035 116.117 100.641C116.152 101.154 116.784 101.718 117.297 101.308C118.819 100.128 120.358 98.9488 121.88 97.7693C122.666 97.1711 121.88 95.8036 121.093 96.4189C119.571 97.5984 118.032 98.7779 116.511 99.9574C116.904 100.18 117.297 100.402 117.69 100.641C117.383 95.8035 117.673 90.7609 118.272 85.9575C118.374 84.9489 116.818 84.966 116.699 85.9575Z" fill="#4F3422"/>
<path d="M125.641 89.0172C127.864 88.8121 130.087 88.6241 132.31 88.419C133.301 88.3335 133.318 86.7608 132.31 86.8463C130.087 87.0514 127.864 87.2395 125.641 87.4446C124.649 87.5472 124.632 89.1027 125.641 89.0172Z" fill="#4F3422"/>
<path d="M123.914 84.06C126.205 82.2822 128.342 80.3335 130.326 78.2309C131.01 77.4959 129.916 76.3848 129.215 77.1198C127.231 79.2224 125.094 81.1711 122.803 82.9489C122.016 83.5642 123.127 84.6753 123.914 84.06Z" fill="#4F3422"/>
<path d="M127.745 104.333C127.847 104.316 127.727 104.316 127.693 104.316C127.591 104.282 127.556 104.248 127.488 104.179C127.403 104.094 127.505 104.248 127.471 104.145C127.454 104.077 127.454 104.077 127.471 104.145C127.471 104.111 127.454 104.077 127.454 104.043C127.454 103.838 127.642 103.667 127.83 103.632C127.898 103.615 127.967 103.615 128.018 103.65C128.069 103.667 128.172 103.769 128.086 103.684C128.121 103.735 128.155 103.769 128.172 103.838C128.172 103.872 128.189 103.906 128.189 103.94C128.104 104.094 128.018 104.248 127.916 104.385C127.745 104.521 127.488 104.47 127.351 104.316C127.249 104.197 127.214 104.043 127.266 103.872C127.351 103.769 127.437 103.65 127.522 103.547C127.574 103.513 127.676 103.496 127.727 103.496C127.762 103.496 127.796 103.513 127.83 103.513C127.762 103.496 127.762 103.496 127.83 103.513C127.916 103.53 127.967 103.598 128.001 103.701C128.104 103.889 128.138 103.923 128.121 103.821C128.035 103.41 127.539 103.171 127.163 103.274C126.736 103.393 126.531 103.821 126.616 104.231C126.855 105.41 128.805 105.256 128.805 104.026C128.805 102.829 126.941 102.453 126.633 103.684C126.36 104.778 127.813 105.718 128.634 104.88C129.352 104.179 128.77 102.675 127.71 102.795C127.3 102.846 126.907 103.12 126.924 103.581C126.992 103.94 127.317 104.385 127.745 104.333Z" fill="#4F3422"/>
<path d="M185.897 250.213C167.516 245.512 120.477 205.034 103.635 176.589C98.6595 168.196 94.573 159.581 92.5211 150.042C91.4439 145.051 93.2051 139.649 96.4538 139.444C94.573 135.718 96.6419 131.598 100.267 129.53C101.618 128.743 103.567 130.487 104.439 129.188C105.157 128.111 105.14 126.726 105.089 125.427C104.798 118.914 106.183 108.778 109.859 103.086C111.415 100.675 115.211 101.718 115.279 104.59C115.331 106.658 115.074 108.846 114.801 110.009C113.159 117.085 114.442 123.085 115.006 130.35C115.399 135.376 116.904 139.393 119.537 142.914C121.674 145.769 126.274 144.145 126.069 140.572C125.915 137.803 124.855 134.897 123.384 132.778C121.965 130.761 120.443 127.94 119.605 125.12C118.562 121.564 120.802 117.957 123.795 120.128C141.594 133.068 142.449 141.684 152.589 151.29C168.969 166.794 185.504 182.418 204.671 194.299C208.364 196.589 212.314 198.897 214.52 202.64C218.983 210.196 215.46 223.29 211.391 231.068C204.039 245.187 193.916 252.247 185.897 250.213Z" fill="#ED7E1C"/>
<path d="M186.102 249.444C179.724 247.751 173.842 243.922 168.405 240.281C160.471 234.965 152.999 228.965 145.818 222.692C130.993 209.734 116.391 195.29 105.773 178.589C101.977 172.624 98.6424 166.282 96.1631 159.649C94.8978 156.282 93.6838 152.692 93.1366 149.119C92.7092 146.299 92.9144 140.726 96.6419 140.179C97.189 140.094 97.2916 139.427 97.1035 139.034C95.7527 135.94 97.2403 131.188 100.848 130.367C102.302 130.043 103.892 131 105.02 129.632C106.217 128.196 105.824 125.838 105.79 124.145C105.755 121.564 105.944 118.966 106.32 116.419C106.645 114.145 107.106 111.872 107.773 109.667C108.354 107.752 109.5 103.12 111.774 102.573C115.536 101.667 114.356 107.872 114.014 109.786C113.484 112.641 113.125 115.393 113.193 118.299C113.296 123.632 113.638 129.513 114.852 134.709C115.604 137.94 117.417 143.564 120.871 144.846C123.555 145.837 126.513 143.991 126.821 141.154C127.334 136.162 123.487 132.214 121.538 128.026C120.836 126.504 120.016 124.692 120.153 122.983C120.221 122.008 120.477 120.607 121.657 120.282C122.392 120.077 123.658 121.068 124.205 121.393C126.872 123 129.352 125.41 131.626 127.53C134.84 130.521 137.747 133.82 140.38 137.342C142.483 140.162 144.433 143.068 146.604 145.837C149.46 149.461 152.794 152.555 156.128 155.718C164.797 163.889 173.552 172.008 182.802 179.512C187.231 183.102 191.762 186.555 196.43 189.82C201.217 193.153 206.86 195.82 211.152 199.786C220.145 208.11 214.742 223.683 209.63 232.691C205.218 240.435 196.515 251.871 186.102 249.444C185.127 249.221 184.7 250.726 185.692 250.948C194.036 252.879 201.576 246.469 206.364 240.384C212.759 232.264 217.598 221.512 217.375 210.999C217.273 206.093 215.683 201.7 211.955 198.384C207.561 194.487 202.038 191.786 197.216 188.435C185.965 180.623 175.586 171.598 165.498 162.316C157.77 155.188 150.195 148.333 144.056 139.769C141.526 136.231 138.91 132.743 135.917 129.581C134.139 127.701 132.241 125.923 130.275 124.231C128.291 122.538 125.829 119.94 123.367 118.983C119.383 117.444 118.101 122.385 118.836 125.308C119.503 127.974 120.973 130.555 122.478 132.829C123.948 135.068 126.958 140.538 124.307 142.846C121.298 145.427 118.887 140.812 117.827 138.555C116.322 135.308 115.929 131.906 115.604 128.385C115.314 125.325 114.92 122.282 114.801 119.205C114.664 115.701 115.228 112.436 115.758 108.983C116.066 107 116.613 104.197 115.314 102.453C114.305 101.12 112.424 100.607 110.885 101.239C109.09 101.974 108.235 104.18 107.534 105.838C106.354 108.607 105.584 111.547 105.072 114.504C104.593 117.256 104.302 120.043 104.251 122.829C104.234 123.991 104.712 125.974 104.285 127C104.028 127.308 103.772 127.598 103.516 127.906C103.259 128.743 102.797 129 102.165 128.675C101.652 128.761 101.139 128.487 100.592 128.607C98.4543 129.051 96.4367 131.615 95.6159 133.496C94.6926 135.649 94.8465 137.752 95.7698 139.872C95.9237 139.496 96.0776 139.102 96.2315 138.726C91.6149 139.41 91.0506 145.923 91.5978 149.495C92.6408 156.179 95.4621 162.777 98.4543 168.812C103.156 178.265 109.192 186.829 115.98 194.897C129.882 211.393 146.108 226.418 163.669 238.948C170.32 243.7 177.672 248.897 185.692 251.016C186.666 251.221 187.077 249.7 186.102 249.444Z" fill="#4F3422"/>
<path d="M103.002 129.701C103.601 137.701 105.789 145.205 109.876 152.128C110.389 153 111.74 152.213 111.227 151.342C107.277 144.658 105.157 137.427 104.575 129.701C104.507 128.692 102.934 128.692 103.002 129.701Z" fill="#4F3422"/>
<path d="M95.7358 139.667C96.1462 146.555 98.0099 153.137 101.259 159.222C101.737 160.111 103.088 159.325 102.609 158.436C99.4975 152.59 97.7022 146.282 97.3089 139.667C97.2405 138.675 95.6674 138.675 95.7358 139.667Z" fill="#4F3422"/>
<path d="M109.517 108.214C111.705 107.359 113.176 105.222 113.005 102.846C112.937 101.855 111.363 101.838 111.449 102.846C111.569 104.487 110.68 106.094 109.106 106.71C108.166 107.069 108.576 108.59 109.517 108.214Z" fill="#4F3422"/>
<path d="M123.572 120.162C122.871 123.462 125.196 126.641 128.513 127.085C129.505 127.222 129.505 125.65 128.513 125.513C126.222 125.205 124.615 122.778 125.077 120.573C125.282 119.598 123.777 119.171 123.572 120.162Z" fill="#4F3422"/>
<path d="M117.434 153.034C118.682 151.957 119.913 150.863 121.161 149.786C121.914 149.12 120.802 148.026 120.05 148.675C118.802 149.752 117.57 150.846 116.322 151.923C115.57 152.59 116.681 153.684 117.434 153.034Z" fill="#E1E1E0"/>
<path d="M108.799 161.854C109.876 160.778 110.953 159.701 112.03 158.624C112.749 157.906 111.637 156.812 110.919 157.513C109.842 158.589 108.765 159.666 107.687 160.743C106.986 161.461 108.081 162.572 108.799 161.854Z" fill="#E1E1E0"/>
<path d="M101.942 169.239C102.592 168.641 103.225 168.025 103.874 167.427C104.61 166.743 103.498 165.632 102.763 166.316C102.113 166.914 101.481 167.53 100.831 168.128C100.096 168.829 101.207 169.923 101.942 169.239Z" fill="#E1E1E0"/>
<path d="M135.592 140.829C136.892 140.248 138.277 139.991 139.696 139.991C140.705 139.991 140.705 138.436 139.696 138.436C137.986 138.419 136.362 138.795 134.806 139.479C133.899 139.889 134.686 141.239 135.592 140.829Z" fill="#E1E1E0"/>
<path d="M186.102 180.162C188.479 177.085 191.916 173.649 195.643 174.794C198.738 175.769 200.003 179.376 200.824 182.504C201.85 180.606 203.115 178.487 205.475 178.435C206.672 178.401 207.817 178.965 208.672 179.82C210.262 181.393 210.81 183.581 211.34 185.683C211.647 182.863 215.922 182.162 218.042 184.042C220.163 185.923 220.607 189.034 220.812 191.854C221.377 199.529 221.188 207.529 217.7 214.435C217.273 215.273 216.503 215.905 215.563 216.042C213.186 216.367 212.366 213.307 212.331 211.051C212.212 205.102 210.16 190.367 210.16 190.367C210.16 190.367 208.758 201.837 207.646 206.264C207.321 207.563 207.287 208.999 206.62 210.572C204.791 214.982 198.806 213.905 198.892 209.136C198.943 206.179 199.251 203.205 199.302 200.726C199.422 196.111 199.542 191.495 199.661 186.863C195.25 194.948 190.189 203.615 181.468 206.794C181.075 206.931 180.63 206.982 180.22 206.88C178.664 206.487 178.767 204.658 179.126 203.307C180.955 196.316 186.752 189.495 190.958 183.615L186.102 180.162Z" fill="#ED7E1C"/>
<path d="M186.649 180.726C188.547 178.333 191.368 174.863 194.788 175.461C198.174 176.059 199.268 179.854 200.055 182.726C200.226 183.359 201.166 183.512 201.491 182.914C202.619 180.846 204.312 178.213 207.133 179.649C209.373 180.794 210.04 183.683 210.587 185.905C210.775 186.641 211.938 186.675 212.092 185.905C212.485 184.025 214.657 183.41 216.35 183.991C218.128 184.606 219.034 186.504 219.496 188.196C220.334 191.324 220.282 194.897 220.265 198.111C220.248 201.581 219.957 205.085 219.085 208.452C218.726 209.837 218.128 213.136 217.016 214.059C216.093 214.333 215.153 214.589 214.229 214.863C213.922 214.521 213.699 214.128 213.58 213.683C213.272 212.931 213.186 212.162 213.118 211.358C212.605 204.264 211.887 197.222 210.895 190.179C210.758 189.222 209.459 189.598 209.356 190.384C208.587 196.555 207.954 202.999 206.278 209.016C205.646 211.29 203.577 213.786 201.029 212.093C198.841 210.64 199.695 206.982 199.832 204.777C200.208 198.828 200.243 192.846 200.397 186.897C200.414 186.128 199.302 185.82 198.943 186.504C195.096 193.512 190.838 201.239 183.469 205.085C182.409 205.649 180.015 207.307 179.656 204.589C179.536 203.615 180.254 202.128 180.596 201.239C181.434 199.034 182.597 196.965 183.845 194.965C186.222 191.17 188.992 187.683 191.608 184.059C192.189 183.239 190.838 182.453 190.257 183.273C188.513 185.7 172.338 206.384 180.203 207.717C182.05 208.025 184.426 206.435 185.897 205.495C187.966 204.179 189.812 202.538 191.454 200.709C195.062 196.709 197.729 191.991 200.311 187.29C199.832 187.153 199.336 187.034 198.858 186.897C198.755 190.863 198.652 194.811 198.55 198.777C198.464 202.35 197.729 206.213 198.105 209.769C198.464 213.153 202.021 215.324 205.099 213.529C207.202 212.298 207.715 209.94 208.142 207.717C208.57 205.461 209.066 203.205 209.442 200.931C210.006 197.427 210.485 193.923 210.929 190.401C210.416 190.47 209.903 190.538 209.39 190.606C209.92 194.401 210.399 198.196 210.81 201.991C211.083 204.555 211.357 207.119 211.494 209.7C211.596 211.666 211.528 213.905 212.793 215.563C213.904 217.016 215.819 217.256 217.29 216.145C219.513 214.469 220.351 210.128 220.898 207.598C221.65 204.059 221.872 200.401 221.821 196.794C221.77 193.495 221.821 189.837 220.658 186.692C219.786 184.367 218.042 182.418 215.443 182.264C213.22 182.128 211.066 183.256 210.604 185.529C211.1 185.529 211.613 185.529 212.109 185.529C211.34 182.435 210.074 178.435 206.415 177.803C203.32 177.256 201.474 179.786 200.157 182.179C200.636 182.247 201.115 182.299 201.593 182.367C200.687 179.017 199.285 174.931 195.506 174.025C191.334 173.017 187.897 176.76 185.589 179.666C184.922 180.401 186.034 181.512 186.649 180.726Z" fill="#4F3422"/>
<path d="M117.741 82.9489C107.585 79.8036 97.4453 76.6412 87.3058 73.4446C87.0836 75.6156 88.2121 77.6668 89.3064 79.5472C91.3753 83.1027 93.6323 86.8463 97.3086 88.6924C100.728 90.4018 104.849 90.1283 108.44 88.8292C112.03 87.53 115.177 85.2907 118.289 83.0856L117.741 82.9489Z" fill="#ED7E1C"/>
<path d="M105.294 195.581C100.763 191.581 95.2055 189.187 89.1526 188.777C81.6463 188.282 74.1399 190.47 66.7704 188.316C66.8901 188.743 66.9927 189.187 67.1124 189.615C70.7202 186.401 76.0721 186.88 80.569 187.051C85.596 187.239 90.5376 187.854 95.2568 189.632C95.3936 189.136 95.5304 188.623 95.6671 188.128C90.3495 186.743 85.1173 185.085 79.9706 183.153C77.3545 182.162 74.5161 181.256 72.071 179.871C71.6264 179.649 71.2161 179.376 70.8399 179.051C70.857 178.128 70.8741 177.205 70.8912 176.282C71.1135 175.974 72.0881 175.803 72.4643 175.735C73.8835 175.461 75.542 175.752 76.927 175.991C87.1862 177.752 95.6159 184.709 103.379 191.17C104.148 191.803 105.259 190.709 104.49 190.059C99.3605 185.786 94.1454 181.495 88.2121 178.35C85.4251 176.88 82.4841 175.649 79.4063 174.897C76.8415 174.265 73.6954 173.564 71.1306 174.47C69.5404 175.034 68.2409 176.333 68.5658 178.145C68.9762 180.435 71.6777 181.444 73.5244 182.23C80.569 185.239 87.836 187.7 95.2568 189.632C96.2485 189.888 96.6076 188.47 95.6671 188.128C90.2127 186.076 84.4333 185.581 78.654 185.444C74.1741 185.341 69.5062 185.393 65.9839 188.521C65.5393 188.931 65.7958 189.666 66.3259 189.82C72.584 191.649 78.9447 190.487 85.3225 190.282C92.35 190.076 98.8475 191.974 104.165 196.658C104.935 197.341 106.046 196.247 105.294 195.581Z" fill="#4F3422"/>
<path d="M122.974 73.7524C123.948 68.6926 124.239 63.5645 123.658 58.4363C123.298 55.291 122.529 51.5475 119.947 49.4278C114.681 45.1202 108.286 53.9577 110.269 58.9833C113.091 66.1115 122.29 52.009 123.435 49.5304C124.324 47.6159 125.88 43.5475 122.683 42.8296C121.11 42.4706 119.349 43.4962 117.947 44.1116C115.843 45.0518 113.809 46.1629 111.877 47.4278C108.217 49.8381 104.917 52.7611 102.096 56.1115C100.232 58.3167 96.6075 62.0431 98.1806 65.2397C99.5485 68.026 103.105 67.1029 105.362 66.1798C109.278 64.573 113.022 62.4876 116.476 60.0431C123.572 55.0175 129.591 48.5218 134.139 41.1202C136.054 37.992 138.208 34.2826 135.934 30.7442C133.814 27.4451 129.813 27.069 126.308 27.9237C117.793 30.0091 109.124 34.7613 102.284 40.1629C95.0002 45.9236 89.409 53.462 86.81 62.4363C86.7416 62.6756 86.81 63.0346 87.0151 63.2055C90.9649 66.4534 97.2914 62.1628 101.104 60.3166C106.593 57.6842 111.911 54.6586 116.818 51.0517C125.846 44.4193 135.216 34.5048 137.507 23.1374C140.346 9.37681 121.554 11.3255 113.518 13.958C107.602 15.9067 102.165 19.0861 97.2572 22.8981C92.1447 26.8468 86.9638 31.5818 83.2705 36.9151C80.7057 40.6245 78.5855 46.7099 83.1337 49.8894C87.4084 52.8808 93.6836 50.2483 98.0096 48.727C110.663 44.2826 123.538 37.3253 132.857 27.5305C134.806 25.4793 136.601 23.2571 138.123 20.8639C139.593 18.5733 141.987 15.1545 141.389 12.2486C140.397 7.47938 133.729 8.62467 130.343 9.01783C117.468 10.5392 104.969 14.9836 93.8546 21.6844C88.1608 25.1203 82.8089 29.1374 77.9187 33.6331C73.0968 38.0775 68.3092 43.0005 65.7102 49.1201C64.7356 51.4278 64.3423 53.5475 65.7273 55.7697C67.0952 57.9577 69.5061 59.6158 71.8486 60.5901C76.8414 62.6927 82.5695 62.026 87.6649 60.6414C94.265 58.8637 100.677 55.8722 106.764 52.7953C112.988 49.6671 119.366 46.2484 124.564 41.5475C129.129 37.4108 132.634 32.0091 133.694 25.8724C134.156 23.2058 134.413 19.787 133.233 17.2571C132.138 14.8981 129.403 14.1118 127.094 13.4622C107.311 7.83836 71.5922 22.693 80.4151 48.0945C81.9197 52.4193 84.9462 56.0261 89.4431 57.3423C95.2567 59.0517 102.507 58.1115 108.406 57.2056C120.375 55.3936 132.822 50.2312 140.739 40.7441C144.296 36.4877 146.98 30.5732 144.603 25.1032C142.62 20.5391 137.747 18.1802 133.062 17.428C120.135 15.3768 107.192 21.4793 97.035 28.9151C92.3841 32.3339 86.5364 36.2655 83.8177 41.5133C81.5949 45.7868 82.9286 50.7099 88.2633 50.9492C94.5214 51.2227 101.566 48.6586 107.243 46.2825C113.569 43.633 119.537 40.1458 125.214 36.2997C130.753 32.539 136.054 28.4194 141.286 24.2314C141.953 23.7015 141.201 22.7955 140.517 22.9323C122.717 26.1972 106.388 34.7954 93.1365 47.0347C92.7261 47.4107 92.9142 47.9748 93.2903 48.2654C97.7018 51.5133 103.173 49.1543 107.653 47.2911C112.766 45.1543 117.776 42.7612 122.512 39.8723C127.265 36.9664 131.762 33.5818 135.678 29.5989C137.593 27.6502 139.388 25.5476 140.961 23.3254C142.021 21.8554 142.928 20.1289 141.765 18.4195C140.722 16.8981 138.653 16.6075 136.977 16.4537C133.66 16.1631 130.326 16.4708 127.06 17.0349C120.665 18.146 114.339 20.0605 108.235 22.2314C96.0945 26.5733 84.5016 32.539 73.9689 39.9407C69.5061 43.0689 65.2315 46.556 61.7262 50.7611C60.119 52.6928 58.6656 54.7611 57.4516 56.9833C56.5282 58.6756 54.6816 61.5987 55.3313 63.65C55.9127 65.4106 58.2723 66.2482 59.8454 66.7781C62.4444 67.6499 65.1973 67.7183 67.8988 67.3422C73.5927 66.573 78.9788 64.0431 84.1768 61.7183C105.379 52.2483 125.436 39.257 139.593 20.5562C142.175 17.1545 145.27 12.8811 140.346 9.90672C135.951 7.24007 129.693 9.13749 124.991 9.83834C113.689 11.5135 102.387 13.4793 91.4437 16.8297C80.5177 20.1631 69.9678 24.9323 60.8713 31.9066C53.7583 37.3595 43.2084 46.5048 50.4582 56.0261C57.7251 65.5816 73.4559 60.556 82.5011 56.7953C94.1624 51.9577 105.088 44.6415 115.16 37.086C120.135 33.3596 124.889 29.2741 128.992 24.6075C132.412 20.7272 135.627 16.1631 135.25 10.7443C135.148 9.25715 134.669 6.28281 133.318 5.37683C132.566 4.88111 131.42 5.05205 130.565 5.01786C128.941 4.94949 127.334 4.93239 125.709 4.96658C119.468 5.12042 113.244 6.0435 107.209 7.59904C95.137 10.7101 83.7835 16.2486 73.4388 23.0861C68.6512 26.2485 62.9744 29.6673 59.777 34.5732C57.2806 38.4023 56.494 43.9407 59.606 47.6672C62.7522 51.4449 68.4118 51.9577 72.96 52.3509C79.2523 52.8979 85.6301 52.3851 91.8028 51.0688C102.917 48.727 115.262 43.9065 123.487 35.8211C127.111 32.2655 129.659 27.9066 130.36 22.8468C130.412 22.4195 130.258 22.0263 129.813 21.8895C117.605 18.2144 104.353 20.1289 93.3929 26.522C87.7504 29.804 82.6208 34.2484 78.7565 39.5305C74.6357 45.1373 80.0902 49.8723 85.4763 51.5988C92.0763 53.7184 99.7536 52.5902 106.285 50.8295C113.706 48.8295 120.699 45.3766 127.214 41.3253C132.566 37.992 140.329 33.8895 142.586 27.5476C144.638 21.7699 139.987 16.6246 134.207 16.5221C129.933 16.4537 125.504 18.3169 121.606 19.8896C117.741 21.4622 113.997 23.3254 110.492 25.5818C104.37 29.4792 97.6334 34.9493 97.8728 42.915C97.8899 43.3595 98.2148 43.6672 98.6593 43.7014C114.92 44.727 130.155 36.0946 139.252 22.8639C139.593 22.3682 139.132 21.6844 138.568 21.6844C124.359 21.8554 111.141 28.5904 101.857 39.2228C101.378 39.7698 101.737 40.4706 102.404 40.5561C109.072 41.3424 115.758 39.445 121.264 35.6159C123.948 33.7527 126.325 31.4621 128.325 28.8639C130.258 26.3511 132.771 22.7955 133.045 19.5306C133.626 12.7956 121.52 14.4879 117.81 15.1204C113.946 15.7699 110.184 17.052 106.696 18.8468C104.883 19.7699 103.156 20.8468 101.498 22.0434C100.506 22.7784 99.1552 23.5477 98.7277 24.7784C96.4707 31.3083 111.176 26.71 112.885 26.163C116.904 24.881 120.819 23.24 124.547 21.24C127.744 19.5306 131.608 17.6161 133.848 14.6588C135.627 12.2999 135.9 9.30843 134.259 6.79563C132.498 4.11188 129.403 3.20591 126.342 3.06916C118.562 2.71018 110.304 3.77001 102.78 5.7529C95.1541 7.76998 87.8701 11.1717 81.8172 16.2656C77.4057 19.975 72.4642 27.2912 77.4741 32.5903C81.8855 37.257 90.1784 35.4963 95.5645 34.0775C103.703 31.9408 111.193 27.8895 118.169 23.2741C121.862 20.8297 125.453 18.1973 128.975 15.4964C131.232 13.7699 135.028 11.6845 135.353 8.50502C136.054 1.78711 122.974 5.65034 119.964 6.41956C105.55 10.1289 89.1696 20.0947 83.7835 34.6929C82.5524 38.0262 82.2275 41.633 84.2794 44.7099C85.9721 47.2569 88.7421 48.8808 91.5805 49.8381C99.4117 52.4705 107.807 50.1287 115.108 46.9834C123.298 43.445 131.13 38.898 138.55 33.9407C145.185 29.4963 152.777 24.6246 157.769 18.2656C159.838 15.6503 161.138 12.7785 161.531 9.46228C161.565 9.1204 161.257 8.79561 160.95 8.71014C145.475 4.48795 129.334 10.3341 114.783 15.411C101.994 19.8896 89.6141 27.0177 85.1001 40.5903C84.7752 41.5475 86.297 41.9578 86.6048 41.0005C91.153 27.2912 104.114 20.6588 116.938 16.3169C130.788 11.6332 145.869 6.21443 160.522 10.2144C160.334 9.958 160.146 9.71868 159.941 9.46228C159.137 16.2486 153.546 20.7443 148.536 24.7271C143.218 28.9322 137.661 32.8125 131.882 36.351C125.915 39.992 119.691 43.4621 113.21 46.1116C106.986 48.6586 99.9759 50.5047 93.2903 48.7441C90.1613 47.9065 86.8955 46.2825 85.254 43.3424C83.2534 39.7698 84.8949 35.4963 86.6219 32.163C89.5628 26.4707 94.265 21.8724 99.3604 18.0776C104.712 14.0947 110.697 10.9494 117.057 8.91527C119.81 8.04348 122.615 7.34263 125.453 6.8811C127.06 6.62469 128.736 6.36828 130.377 6.2999C131.694 6.24862 134.19 6.09478 133.729 8.74433C133.558 9.78706 132.566 10.6247 131.831 11.3084C129.317 13.6845 126.188 15.6845 123.401 17.7186C120.682 19.7015 117.93 21.616 115.091 23.4109C109.62 26.8639 103.857 29.8895 97.6676 31.8553C92.538 33.4792 84.8607 35.6843 79.8679 32.539C72.4471 27.8724 80.3638 19.2058 84.7923 15.8896C94.8976 8.31699 107.602 5.44521 120.016 4.77855C123.145 4.60761 126.804 4.16317 129.779 5.27427C134.669 7.10332 134.686 12.2144 131.044 15.3084C126.017 19.599 119.109 22.522 112.903 24.5391C111.158 25.1032 109.397 25.5989 107.602 26.0092C106.012 26.3852 103.413 27.3596 101.788 26.8297C98.4028 25.7186 102.387 23.2912 103.721 22.4024C105.174 21.4451 106.679 20.5733 108.252 19.8212C111.535 18.2314 115.04 17.1203 118.648 16.5733C121.828 16.0776 126.393 15.5306 129.471 16.7443C136.362 19.4451 123.076 32.5049 120.169 34.4878C114.92 38.0433 108.73 39.7356 102.404 39.0005C102.592 39.445 102.78 39.8894 102.951 40.3339C111.962 29.9921 124.735 23.428 138.55 23.2571C138.328 22.8639 138.106 22.4707 137.884 22.0776C129.078 34.8638 114.339 43.1202 98.6422 42.1287C98.8987 42.3851 99.1552 42.6586 99.4288 42.915C99.2236 36.0262 104.866 31.2057 110.115 27.6844C115.365 24.1801 121.127 21.4964 127.111 19.5477C130.429 18.4708 134.344 17.24 137.696 18.8639C141.56 20.7272 142.449 25.1374 140.346 28.6758C137.268 33.8724 130.685 37.3937 125.658 40.4535C115.296 46.7783 102.814 52.1287 90.4007 50.9663C87.4939 50.6928 84.5871 49.9406 82.142 48.2825C80.2954 47.0347 78.4487 45.1885 78.7565 42.7441C78.9617 41.1031 80.9451 39.2228 81.971 38.0262C85.5276 33.9066 89.7851 30.3852 94.5214 27.6844C105.088 21.6502 117.724 19.8725 129.42 23.3938C129.232 23.069 129.061 22.7442 128.873 22.4365C127.453 32.6245 118.545 38.7612 109.996 43.0176C99.9417 48.0261 88.7934 51.0859 77.5254 51.0005C72.6181 50.9663 65.6931 50.9663 61.7262 47.5817C56.5111 43.1544 60.0164 35.7527 64.0687 31.992C68.0185 28.3169 72.772 25.2912 77.3373 22.4536C81.8513 19.6502 86.5193 17.1033 91.3753 14.8981C101.224 10.4195 111.808 7.37682 122.632 6.67597C125.128 6.52212 127.624 6.47084 130.121 6.55631C131.352 6.60759 132.173 6.47084 132.857 7.54776C133.694 8.8298 133.78 10.7956 133.694 12.2657C133.37 17.975 128.89 22.6246 125.094 26.4878C117.434 34.2484 108.2 40.4022 99.0184 46.18C89.8193 51.9748 79.9534 57.2568 69.1299 59.1713C63.7952 60.1115 57.3661 60.5218 53.0743 56.5902C48.0644 51.9919 49.1074 45.6501 53.2282 40.898C59.5547 33.616 68.2579 28.0946 76.9098 24.0092C85.6814 19.8725 95.0344 17.1203 104.49 15.052C113.843 13.0007 123.589 11.0691 133.147 10.2657C135.695 10.0606 139.32 10.0606 140.91 12.4708C142.757 15.2571 138.687 19.24 137.063 21.3084C134.002 25.1887 130.651 28.8468 127.077 32.2655C119.879 39.1544 111.808 45.0689 103.259 50.1629C94.8121 55.2056 85.8695 59.6158 76.7218 63.2397C71.746 65.2055 66.0009 67.0345 60.6661 65.4277C59.1443 64.9662 56.8189 64.2311 56.8873 62.1457C56.9215 61.0175 57.9303 59.5303 58.4262 58.5389C59.7086 56.0432 61.2817 53.7355 63.0941 51.5988C69.66 43.8723 78.7394 38.2313 87.5281 33.3596C97.0862 28.0433 107.243 23.8382 117.776 20.8639C123.367 19.2913 129.18 17.8041 135.045 17.9409C136.208 17.975 137.901 17.8383 138.944 18.3682C141.577 19.6844 140.106 21.9066 138.892 23.4964C137.302 25.5818 135.541 27.5476 133.66 29.3767C126.513 36.351 117.656 41.2911 108.542 45.2227C104.216 47.086 98.437 50.1458 94.0769 46.915C94.1282 47.3253 94.1795 47.7355 94.2308 48.1458C107.311 36.0775 123.384 27.6673 140.927 24.4536C140.671 24.0263 140.414 23.5818 140.158 23.1545C128.548 32.4536 116.254 41.821 101.959 46.6244C98.6935 47.7184 95.3422 48.5731 91.9225 49.0859C90.3836 49.3253 88.6053 49.6329 87.0493 49.2569C83.5783 48.4022 83.869 44.8296 85.1514 42.3168C86.7587 39.1544 89.6996 36.8467 92.3499 34.5903C95.4619 31.9408 98.7448 29.4621 102.199 27.257C108.149 23.4622 114.698 20.4366 121.691 19.2058C127.864 18.1289 135.986 18.0092 140.893 22.5904C147.219 28.4878 142.381 37.1715 137.371 42.0262C132.173 47.0689 125.778 50.727 118.955 53.0517C112.629 55.2056 105.978 56.2483 99.3262 56.4705C92.4354 56.6927 85.7498 56.1115 82.5353 49.2227C80.1244 44.0603 80.2099 37.5305 82.484 32.3168C85.254 25.9921 90.9991 21.5306 97.1204 18.7101C103.738 15.6503 111.347 13.7528 118.648 13.8554C122.102 13.9067 127.642 14.2315 130.514 16.4708C133.797 19.0349 132.412 25.4964 131.335 28.7784C128.838 36.3852 122.734 41.7185 116.134 45.8039C109.414 49.9748 102.233 53.5133 94.8976 56.4705C88.9644 58.8637 82.3301 61.2055 75.8326 60.1286C72.5497 59.5816 68.9077 57.9064 67.061 54.9833C64.8382 51.4962 68.7196 46.2484 70.8056 43.4621C79.3378 32.1117 92.2986 23.2571 105.14 17.5648C111.432 14.7785 118.066 12.693 124.837 11.411C128.172 10.7785 131.66 10.1631 135.062 10.1289C136.584 10.1118 138.653 10.2828 139.559 11.7187C140.79 13.6674 138.636 16.8981 137.661 18.6075C130.326 31.257 115.895 39.7527 102.746 45.2227C99.3775 46.6244 95.9235 47.8894 92.4012 48.8637C89.5799 49.65 85.6814 50.4193 83.3902 48.0432C77.8332 42.2655 88.6737 32.6758 92.5038 29.0348C102.079 19.9408 116.681 10.7614 130.565 14.0947C140.209 16.4024 135.062 27.1545 131.745 32.8296C128.428 38.4706 123.965 43.3595 118.904 47.4962C114.048 51.4791 108.645 54.7611 103.054 57.6158C100.591 58.8808 98.0951 60.0431 95.5645 61.1542C94.0256 61.8209 91.9567 63.0517 90.2126 62.8807C87.8872 62.6414 88.6053 61.8722 89.0499 60.6072C89.4431 59.4619 89.9048 58.3337 90.4178 57.2226C95.7867 45.6159 106.627 37.7185 118.049 32.6758C120.836 31.445 123.777 30.163 126.752 29.445C129.215 28.8639 131.831 28.7784 133.797 30.6074C136.328 32.9493 135.336 35.9407 133.883 38.5561C130.634 44.4535 126.205 49.821 121.195 54.3338C116.271 58.7611 110.423 62.744 104.165 65.0175C103.447 65.2739 102.66 65.5645 101.891 65.5816C99.7707 65.6157 99.1894 63.3935 99.993 61.7354C100.78 60.1115 102.096 58.6073 103.242 57.2397C105.704 54.3167 108.542 51.6842 111.671 49.4962C114.27 47.6842 117.092 46.0945 120.067 44.9492C120.99 44.5902 122.7 43.633 123.11 45.6672C123.264 46.4364 122.375 48.18 122.119 48.7612C121.315 50.5047 120.34 52.1799 119.178 53.7184C118.1 55.1714 116.852 56.5218 115.484 57.7013C114.647 58.4192 113.244 59.9919 111.945 58.8466C111.449 58.4021 111.5 57.1543 111.535 56.556C111.706 52.9834 116.049 47.3937 119.52 51.1714C121.896 53.7526 122.17 58.009 122.358 61.3081C122.58 65.3593 122.255 69.3935 121.486 73.3593C121.264 74.3165 122.768 74.7439 122.974 73.7524Z" fill="#4F3422"/>
<path d="M205.509 206.059C203.064 207.581 201.918 210.572 202.79 213.324C203.098 214.281 204.603 213.871 204.295 212.914C203.628 210.829 204.414 208.589 206.295 207.41C207.15 206.88 206.364 205.512 205.509 206.059Z" fill="#4F3422"/>
<path d="M218.316 207.939C215.478 209.051 213.597 211.649 213.477 214.709C213.443 215.717 215.016 215.717 215.05 214.709C215.136 212.401 216.572 210.298 218.726 209.461C219.667 209.085 219.256 207.581 218.316 207.939Z" fill="#4F3422"/>
<path d="M180.442 206.401C181.81 204.145 184.221 202.897 186.854 203.016C187.863 203.068 187.863 201.495 186.854 201.444C183.674 201.29 180.733 202.897 179.091 205.615C178.578 206.469 179.929 207.256 180.442 206.401Z" fill="#4F3422"/>
<path d="M222.437 193.375C227.43 190.675 232.884 188.965 238.527 188.247C241.433 187.871 244.357 187.752 247.281 187.888C248.734 187.957 250.171 188.076 251.607 188.264C252.633 188.401 255.437 188.47 256.292 189.119C258.002 190.435 254.121 190.555 253.18 190.658C251.795 190.811 250.427 190.914 249.042 191.017C246.118 191.222 243.195 191.375 240.271 191.598C234.816 192.042 229.379 192.794 224.249 194.811C223.446 195.136 223.531 196.299 224.454 196.35C231.379 196.709 238.253 194.64 245.144 195.786C251.316 196.811 257.079 199.854 261.063 204.692C261.063 204.316 261.063 203.957 261.063 203.581C259.096 205.786 255.112 204.64 252.616 204.213C249.538 203.683 246.477 203.085 243.434 202.418C237.364 201.085 231.379 199.461 225.446 197.615C224.489 197.307 224.078 198.828 225.036 199.119C232.217 201.375 239.501 203.256 246.871 204.743C249.948 205.358 253.095 206.076 256.207 206.35C258.361 206.538 260.635 206.401 262.157 204.709C262.465 204.367 262.431 203.94 262.157 203.598C258.19 198.777 252.479 195.649 246.375 194.435C239.04 192.982 231.79 195.187 224.437 194.794C224.506 195.307 224.574 195.82 224.642 196.333C231.824 193.495 239.552 193.205 247.161 192.709C248.615 192.606 261.422 192.846 258.429 188.589C257.25 186.914 253.488 186.948 251.675 186.709C248.153 186.247 244.58 186.145 241.04 186.418C234.252 186.931 227.635 188.777 221.633 192.025C220.761 192.504 221.548 193.854 222.437 193.375Z" fill="#4F3422"/>
</svg>
