<svg width="104" height="87" viewBox="0 0 104 87" fill="none" xmlns="http://www.w3.org/2000/svg">
<path fill-rule="evenodd" clip-rule="evenodd" d="M101.314 74.1791C96.6715 80.3454 84.5618 77.542 74.2692 67.9175C63.9766 58.2866 64.1987 49.978 68.8466 43.8054C73.4888 37.6391 80.7911 35.9482 91.0894 45.5727C101.376 55.2035 105.956 68.0128 101.314 74.1791Z" fill="#7D944D"/>
<path d="M97.7936 61.8594C96.0563 61.8594 94.3874 61.0393 93.2084 59.5709L85.8776 50.4359C84.8637 49.1708 84.3055 47.5434 84.3055 45.8461V41.428C84.3055 40.9512 84.653 40.5698 85.0745 40.5698C85.5017 40.5698 85.8435 40.9576 85.8435 41.428V45.8461C85.8435 47.1175 86.2593 48.3381 87.0225 49.2853L94.3533 58.4203C95.3785 59.6917 96.8937 60.321 98.4088 60.0921L101.257 59.6662C101.678 59.609 102.066 59.9332 102.123 60.4036C102.18 60.8741 101.883 61.3063 101.462 61.3699L98.6138 61.7958C98.3461 61.834 98.067 61.8594 97.7936 61.8594Z" fill="white"/>
<path fill-rule="evenodd" clip-rule="evenodd" d="M46.5328 98.8156C80.8853 98.8156 88.3983 74.7544 83.8928 49.4854C79.3872 24.2163 63.8201 0.835327 46.5328 0.835327C29.2455 0.835327 13.4734 22.6207 9.1786 49.4854C4.88383 76.3564 12.1804 98.8156 46.5328 98.8156Z" fill="#9BB168"/>
<path fill-rule="evenodd" clip-rule="evenodd" d="M45.8551 14.6111H54.4845C63.4784 14.6111 70.7693 22.748 70.7693 32.7857C70.7693 42.8234 63.4784 50.9604 54.4845 50.9604H45.8551C36.8611 50.9604 29.5703 42.8234 29.5703 32.7857C29.5703 22.7417 36.8611 14.6111 45.8551 14.6111Z" fill="#7D944D"/>
<path fill-rule="evenodd" clip-rule="evenodd" d="M47.8771 13.0281H56.5065C65.5005 13.0281 72.7913 21.165 72.7913 31.2027C72.7913 41.2404 65.5005 49.3774 56.5065 49.3774H47.8771C38.8831 49.3774 31.5923 41.2404 31.5923 31.2027C31.5923 21.165 38.8831 13.0281 47.8771 13.0281Z" fill="white"/>
<path d="M40.6203 99.0002C40.1931 99.0002 39.8514 98.6124 39.8514 98.142V88.5875C39.8514 84.7987 42.6139 81.7092 46.0144 81.7092H57.9247C60.4708 81.7092 62.5442 79.3952 62.5442 76.5537V73.9473C62.5442 73.4705 62.8916 73.0891 63.3131 73.0891C63.7403 73.0891 64.0821 73.4769 64.0821 73.9473V76.5537C64.0821 80.3424 61.3195 83.4319 57.919 83.4319H46.0144C43.4683 83.4319 41.395 85.7459 41.395 88.5875V98.1357C41.395 98.6124 41.0475 99.0002 40.6203 99.0002Z" fill="#7D944D"/>
<path d="M63.3132 55.7661C62.886 55.7661 62.5443 55.3784 62.5443 54.9079V54.3104C62.5443 51.9392 64.2701 50.0131 66.3947 50.0131H83.5055C83.9327 50.0131 84.2744 50.4008 84.2744 50.8713C84.2744 51.348 83.927 51.7294 83.5055 51.7294H66.3947C65.1188 51.7294 64.0822 52.8864 64.0822 54.3104V54.9079C64.0822 55.3847 63.7404 55.7661 63.3132 55.7661Z" fill="#7D944D"/>
<path fill-rule="evenodd" clip-rule="evenodd" d="M55.7681 55.4735L65.9293 55.2758C70.4557 55.1872 74.1894 59.2072 74.2723 64.2562C74.2723 64.2562 74.2723 64.2562 74.2714 64.2625C74.3486 69.3104 70.7465 73.4783 66.22 73.567L56.0589 73.7647C51.5325 73.8534 47.7987 69.8334 47.7158 64.7843C47.7158 64.7843 47.7158 64.7843 47.7168 64.7781C47.6405 59.7239 51.2427 55.5559 55.7681 55.4735Z" fill="#926247"/>
<path fill-rule="evenodd" clip-rule="evenodd" d="M58.1897 55.2657L68.1531 55.0743C72.7321 54.983 76.515 59.0579 76.5946 64.1644L76.5937 64.1706C76.6723 69.2834 73.022 73.4999 68.4384 73.5838L58.475 73.7752C53.896 73.8665 50.1177 69.799 50.0325 64.6914L50.0335 64.6851C49.9548 59.5724 53.6051 55.3559 58.1897 55.2657Z" fill="white"/>
<path d="M58.4312 69.0719C56.3601 69.0703 54.6516 67.2107 54.6132 64.8865C54.5731 62.5362 56.2571 60.5902 58.3641 60.5473L58.4278 60.547C58.4512 60.5451 58.4737 60.5496 58.4971 60.5477C60.5681 60.5493 62.2767 62.409 62.3151 64.7331C62.3551 67.0834 60.6712 69.0294 58.5642 69.0723L58.5005 69.0727C58.478 69.0682 58.4546 69.0701 58.4312 69.0719ZM58.3943 62.2633C57.1352 62.2861 56.1301 63.4496 56.1525 64.8479C56.174 66.2524 57.2131 67.367 58.4723 67.3442L58.536 67.3438C59.7895 67.3198 60.7946 66.1564 60.7721 64.7581C60.7507 63.3536 59.7022 62.2242 58.4524 62.2618L58.3943 62.2633Z" fill="#926247"/>
<path d="M64.7894 63.3773C64.3792 63.3739 64.0365 63.0161 64.0225 62.5553C64.0048 62.0809 64.3339 61.6813 64.7592 61.6619L70.6054 61.3817C71.0308 61.3623 71.3893 61.7297 71.407 62.2041C71.4247 62.6785 71.0956 63.0781 70.6702 63.0975L64.824 63.3776C64.8128 63.3754 64.8016 63.3732 64.7894 63.3773Z" fill="#926247"/>
<path d="M65.0119 66.8753C64.6017 66.8719 64.259 66.5141 64.245 66.0533C64.2272 65.5788 64.5564 65.1792 64.9817 65.1598L68.3565 64.9991C68.7818 64.9796 69.1404 65.3471 69.1581 65.8215C69.1758 66.2959 68.8467 66.6956 68.4213 66.715L65.0466 66.8757C65.0343 66.8797 65.0231 66.8775 65.0119 66.8753Z" fill="#926247"/>
<path fill-rule="evenodd" clip-rule="evenodd" d="M51.5817 24.087C52.5842 24.087 53.3987 24.9961 53.3987 26.1149V26.8015C53.3987 27.9203 52.5842 28.8294 51.5817 28.8294C50.5792 28.8294 49.7647 27.9203 49.7647 26.8015V26.1149C49.7647 24.9961 50.5792 24.087 51.5817 24.087Z" fill="#926247"/>
<path fill-rule="evenodd" clip-rule="evenodd" d="M64.4661 24.087C65.4686 24.087 66.2831 24.9961 66.2831 26.1149V26.8015C66.2831 27.9203 65.4686 28.8294 64.4661 28.8294C63.4636 28.8294 62.649 27.9203 62.649 26.8015V26.1149C62.649 24.9961 63.4636 24.087 64.4661 24.087Z" fill="#926247"/>
<path d="M56.5429 37.8371C54.4696 37.8371 52.7836 35.9554 52.7836 33.6415C52.7836 33.1647 53.1311 32.7833 53.5526 32.7833C53.9798 32.7833 54.3215 33.1711 54.3215 33.6415C54.3215 35.0082 55.3183 36.1207 56.5429 36.1207L59.989 36.0889C61.2193 36.0762 62.2104 34.9892 62.2446 33.616C62.256 33.1393 62.6149 32.7706 63.0364 32.7833C63.4636 32.796 63.7939 33.1901 63.7825 33.6669C63.7256 35.9681 62.0624 37.7862 60.0004 37.8117L56.5429 37.8371Z" fill="#4F3422"/>
<path fill-rule="evenodd" clip-rule="evenodd" d="M4.45402 82.4784C10.7025 86.5023 21.2002 79.2554 27.9101 66.2871C34.6199 53.3188 31.8631 45.6015 25.6146 41.5711C19.3661 37.5535 11.9955 38.7486 5.28564 51.7169C-1.42423 64.6851 -1.79447 78.4544 4.45402 82.4784Z" fill="#7D944D"/>
<path d="M19.3262 78.4733C19.0186 78.4733 18.7224 78.2635 18.6085 77.9203L16.3928 71.4997C15.9428 70.1965 16.0453 68.7598 16.6776 67.552L21.2856 58.6967C22.0204 57.2918 23.3817 56.4146 24.8399 56.4146H30.9175C31.3447 56.4146 31.6865 56.8023 31.6865 57.2727C31.6865 57.7432 31.339 58.1309 30.9175 58.1309H24.8342C23.9229 58.1309 23.0742 58.6776 22.6128 59.5549L18.0047 68.4102C17.6117 69.1667 17.5491 70.063 17.8282 70.8767L20.0439 77.31C20.1977 77.755 19.9983 78.2508 19.5996 78.4225C19.5085 78.4542 19.4173 78.4733 19.3262 78.4733Z" fill="white"/>
</svg>
