<svg width="108" height="87" viewBox="0 0 108 87" fill="none" xmlns="http://www.w3.org/2000/svg">
<path fill-rule="evenodd" clip-rule="evenodd" d="M1.89668 73.3438C6.75255 79.5101 19.4195 76.7066 30.1859 67.0822C40.9522 57.4513 40.7198 49.1427 35.858 42.9701C31.0021 36.8038 23.3638 35.1128 12.5915 44.7373C1.83113 54.3682 -2.9592 67.1775 1.89668 73.3438Z" fill="#7D944D"/>
<path d="M5.57875 61.0239C7.39598 61.0239 9.14171 60.2039 10.375 58.7354L18.0431 49.6004C19.1037 48.3354 19.6876 46.708 19.6876 45.0107V40.5926C19.6876 40.1158 19.3241 39.7344 18.8832 39.7344C18.4364 39.7344 18.0789 40.1222 18.0789 40.5926V45.0107C18.0789 46.2821 17.644 47.5026 16.8456 48.4498L9.17745 57.5848C8.10499 58.8562 6.52013 59.4855 4.93527 59.2567L1.95621 58.8308C1.5153 58.7736 1.11015 59.0978 1.05057 59.5682C0.990992 60.0386 1.30081 60.4709 1.74171 60.5345L4.72078 60.9604C5.00081 60.9985 5.29276 61.0239 5.57875 61.0239Z" fill="white"/>
<path fill-rule="evenodd" clip-rule="evenodd" d="M59.1987 97.9803C23.2652 97.9803 15.4065 73.9191 20.1193 48.6501C24.8322 23.381 41.1158 0 59.1987 0C77.2816 0 93.7797 21.7854 98.2721 48.6501C102.765 75.5211 95.1322 97.9803 59.1987 97.9803Z" fill="#9BB168"/>
<path fill-rule="evenodd" clip-rule="evenodd" d="M59.9077 13.7759H50.8812C41.4733 13.7759 33.8469 21.9128 33.8469 31.9505C33.8469 41.9882 41.4733 50.1252 50.8812 50.1252H59.9077C69.3156 50.1252 76.942 41.9882 76.942 31.9505C76.942 21.9065 69.3156 13.7759 59.9077 13.7759Z" fill="#7D944D"/>
<path fill-rule="evenodd" clip-rule="evenodd" d="M57.7926 12.1929H48.7661C39.3582 12.1929 31.7318 20.3298 31.7318 30.3675C31.7318 40.4052 39.3582 48.5421 48.7661 48.5421H57.7926C67.2005 48.5421 74.8269 40.4052 74.8269 30.3675C74.8269 20.3298 67.2005 12.1929 57.7926 12.1929Z" fill="white"/>
<path d="M65.3833 98.165C65.8302 98.165 66.1877 97.7772 66.1877 97.3068V87.7523C66.1877 83.9635 63.298 80.874 59.741 80.874H47.2825C44.6193 80.874 42.4505 78.56 42.4505 75.7185V73.1121C42.4505 72.6353 42.0871 72.2539 41.6461 72.2539C41.1993 72.2539 40.8418 72.6417 40.8418 73.1121V75.7185C40.8418 79.5072 43.7315 82.5967 47.2885 82.5967H59.741C62.4043 82.5967 64.573 84.9107 64.573 87.7523V97.3005C64.573 97.7772 64.9365 98.165 65.3833 98.165Z" fill="#7D944D"/>
<path d="M41.6461 54.9308C42.0929 54.9308 42.4504 54.543 42.4504 54.0726V53.4751C42.4504 51.1039 40.6451 49.1777 38.4227 49.1777H20.5245C20.0776 49.1777 19.7201 49.5655 19.7201 50.0359C19.7201 50.5127 20.0836 50.8941 20.5245 50.8941H38.4227C39.7573 50.8941 40.8417 52.0511 40.8417 53.4751V54.0726C40.8417 54.5494 41.1992 54.9308 41.6461 54.9308Z" fill="#7D944D"/>
<path fill-rule="evenodd" clip-rule="evenodd" d="M49.5384 54.6384L38.9096 54.4409C34.1749 54.3522 30.2693 58.3723 30.1827 63.4213C30.1827 63.4213 30.1827 63.4213 30.1837 63.4276C30.1029 68.4755 33.8709 72.6434 38.6057 72.732L49.2345 72.9296C53.9693 73.0182 57.8748 68.9981 57.9614 63.9491C57.9614 63.9491 57.9614 63.9491 57.9604 63.9428C58.0402 58.8887 54.2722 54.7208 49.5384 54.6384Z" fill="#926247"/>
<path fill-rule="evenodd" clip-rule="evenodd" d="M47.0054 54.4306L36.5834 54.2391C31.7937 54.1479 27.8367 58.2228 27.7534 63.3293L27.7545 63.3355C27.6722 68.4483 31.4905 72.6648 36.2851 72.7486L46.7071 72.9401C51.4968 73.0313 55.4489 68.9638 55.5381 63.8562L55.537 63.8499C55.6193 58.7372 51.8009 54.5207 47.0054 54.4306Z" fill="white"/>
<path d="M46.7528 68.2367C48.9192 68.2351 50.7064 66.3754 50.7465 64.0513C50.7884 61.701 49.0269 59.755 46.823 59.7121L46.7563 59.7118C46.7318 59.7099 46.7083 59.7144 46.6838 59.7125C44.5175 59.7142 42.7303 61.5738 42.6902 63.8979C42.6483 66.2482 44.4097 68.1942 46.6137 68.2371L46.6803 68.2375C46.7038 68.233 46.7283 68.2349 46.7528 68.2367ZM46.7914 61.4281C48.1085 61.451 49.1598 62.6144 49.1363 64.0127C49.1139 65.4172 48.0269 66.5318 46.7098 66.509L46.6432 66.5086C45.332 66.4847 44.2807 65.3212 44.3041 63.9229C44.3266 62.5184 45.4232 61.389 46.7306 61.4266L46.7914 61.4281Z" fill="#926247"/>
<path d="M40.102 62.5421C40.531 62.5387 40.8895 62.1808 40.9042 61.7201C40.9227 61.2457 40.5784 60.8461 40.1335 60.8267L34.0183 60.5466C33.5733 60.5272 33.1983 60.8945 33.1798 61.3689C33.1613 61.8433 33.5056 62.2429 33.9505 62.2623L40.0657 62.5424C40.0775 62.5402 40.0892 62.538 40.102 62.5421Z" fill="#926247"/>
<path d="M39.8692 66.0401C40.2983 66.0367 40.6567 65.6789 40.6714 65.2181C40.69 64.7436 40.3457 64.344 39.9007 64.3246L36.3707 64.1639C35.9257 64.1445 35.5507 64.5119 35.5322 64.9863C35.5137 65.4607 35.8579 65.8604 36.3029 65.8798L39.8329 66.0405C39.8457 66.0445 39.8575 66.0423 39.8692 66.0401Z" fill="#926247"/>
<path fill-rule="evenodd" clip-rule="evenodd" d="M53.9175 23.2517C52.8689 23.2517 52.0169 24.1608 52.0169 25.2796V25.9661C52.0169 27.085 52.8689 27.994 53.9175 27.994C54.9661 27.994 55.8181 27.085 55.8181 25.9661V25.2796C55.8181 24.1608 54.9661 23.2517 53.9175 23.2517Z" fill="#926247"/>
<path fill-rule="evenodd" clip-rule="evenodd" d="M40.4402 23.2517C39.3915 23.2517 38.5395 24.1608 38.5395 25.2796V25.9661C38.5395 27.085 39.3915 27.994 40.4402 27.994C41.4888 27.994 42.3408 27.085 42.3408 25.9661V25.2796C42.3408 24.1608 41.4888 23.2517 40.4402 23.2517Z" fill="#926247"/>
<path d="M48.7279 37.0019C50.8967 37.0019 52.6603 35.1202 52.6603 32.8063C52.6603 32.3295 52.2969 31.9481 51.856 31.9481C51.4091 31.9481 51.0516 32.3358 51.0516 32.8063C51.0516 34.173 50.0089 35.2855 48.7279 35.2855L45.1233 35.2537C43.8363 35.241 42.7996 34.1539 42.7639 32.7808C42.7519 32.3041 42.3766 31.9354 41.9357 31.9481C41.4888 31.9608 41.1432 32.3549 41.1552 32.8317C41.2147 35.1329 42.9545 36.951 45.1114 36.9765L48.7279 37.0019Z" fill="#4F3422"/>
<path fill-rule="evenodd" clip-rule="evenodd" d="M103.214 81.6432C96.6781 85.6671 85.6973 78.4202 78.6786 65.4519C71.6599 52.4836 74.5436 44.7662 81.0797 40.7359C87.6158 36.7183 95.3256 37.9134 102.344 50.8817C109.363 63.8499 109.75 77.6192 103.214 81.6432Z" fill="#7D944D"/>
<path d="M87.6575 77.6379C87.9792 77.6379 88.2891 77.4281 88.4082 77.0848L90.7259 70.6642C91.1966 69.3611 91.0894 67.9244 90.428 66.7166L85.6079 57.8613C84.8393 56.4564 83.4153 55.5791 81.89 55.5791H75.5327C75.0859 55.5791 74.7284 55.9669 74.7284 56.4373C74.7284 56.9077 75.0918 57.2955 75.5327 57.2955H81.896C82.8493 57.2955 83.7371 57.8422 84.2197 58.7195L89.0398 67.5747C89.4509 68.3312 89.5164 69.2276 89.2245 70.0413L86.9068 76.4745C86.7459 76.9195 86.9544 77.4154 87.3715 77.587C87.4668 77.6188 87.5622 77.6379 87.6575 77.6379Z" fill="white"/>
</svg>
